<?xml version="1.0" encoding="UTF-8" standalone="no"?>
<!DOCTYPE svg PUBLIC "-//W3C//DTD SVG 1.1//EN"
 "http://www.w3.org/Graphics/SVG/1.1/DTD/svg11.dtd">
<!-- Generated by graphviz version 14.0.5 (20251129.0259)
 -->
<!-- Title: FSM Pages: 1 -->
<svg width="6638pt" height="476pt"
 viewBox="0.00 0.00 6638.00 476.00" xmlns="http://www.w3.org/2000/svg" xmlns:xlink="http://www.w3.org/1999/xlink">
<g id="graph0" class="graph" transform="scale(1 1) rotate(0) translate(4 472.29)">
<title>FSM</title>
<polygon fill="white" stroke="none" points="-4,4 -4,-472.29 6633.61,-472.29 6633.61,4 -4,4"/>
<!-- start -->
<g id="node1" class="node">
<title>start</title>
<ellipse fill="black" stroke="black" cx="1.8" cy="-308.35" rx="1.8" ry="1.8"/>
</g>
<!-- q0 -->
<g id="node2" class="node">
<title>q0</title>
<ellipse fill="none" stroke="black" cx="67.6" cy="-308.35" rx="27" ry="18"/>
<text xml:space="preserve" text-anchor="middle" x="67.6" y="-303.3" font-family="Times New Roman,serif" font-size="14.00">q0</text>
</g>
<!-- start&#45;&gt;q0 -->
<g id="edge1" class="edge">
<title>start&#45;&gt;q0</title>
<path fill="none" stroke="black" d="M3.91,-308.35C7.21,-308.35 17.46,-308.35 28.73,-308.35"/>
<polygon fill="black" stroke="black" points="28.62,-311.85 38.62,-308.35 28.62,-304.85 28.62,-311.85"/>
</g>
<!-- q5 -->
<g id="node3" class="node">
<title>q5</title>
<ellipse fill="none" stroke="black" cx="3825.47" cy="-383.35" rx="20.13" ry="20.13"/>
<ellipse fill="none" stroke="black" cx="3825.47" cy="-383.35" rx="24.13" ry="24.13"/>
<text xml:space="preserve" text-anchor="middle" x="3825.47" y="-378.3" font-family="Times New Roman,serif" font-size="14.00">q5</text>
</g>
<!-- q0&#45;&gt;q5 -->
<g id="edge5" class="edge">
<title>q0&#45;&gt;q5</title>
<path fill="none" stroke="black" d="M84.51,-322.56C92.38,-328.66 102.37,-335.12 112.6,-338.35 849.17,-570.46 3459.85,-407.41 3790.05,-385.66"/>
<polygon fill="black" stroke="black" points="3789.99,-389.17 3799.73,-385.02 3789.52,-382.18 3789.99,-389.17"/>
<text xml:space="preserve" text-anchor="middle" x="606.48" y="-454.99" font-family="Times New Roman,serif" font-size="14.00">&#39;0&#39;,&#39;1&#39;,&#39;2&#39;,&#39;3&#39;,&#39;4&#39;,&#39;5&#39;,&#39;6&#39;,&#39;7&#39;,&#39;8&#39;,&#39;9&#39;,&#39;A&#39;,&#39;B&#39;,&#39;C&#39;,&#39;D&#39;,&#39;E&#39;,&#39;F&#39;,&#39;G&#39;,&#39;H&#39;,&#39;I&#39;,&#39;J&#39;,&#39;K&#39;,&#39;L&#39;,&#39;M&#39;,&#39;N&#39;,&#39;O&#39;,&#39;P&#39;,&#39;Q&#39;,&#39;R&#39;,&#39;S&#39;,&#39;T&#39;,&#39;U&#39;,&#39;V&#39;,&#39;W&#39;,&#39;X&#39;,&#39;Y&#39;,&#39;Z&#39;,&#39;_&#39;,&#39;a&#39;,&#39;b&#39;,&#39;c&#39;,&#39;d&#39;,&#39;e&#39;,&#39;f&#39;,&#39;g&#39;,&#39;h&#39;,&#39;i&#39;,&#39;j&#39;,&#39;k&#39;,&#39;l&#39;,&#39;m&#39;,&#39;n&#39;,&#39;o&#39;,&#39;p&#39;,&#39;q&#39;,&#39;r&#39;,&#39;s&#39;,&#39;t&#39;,&#39;u&#39;,&#39;v&#39;,&#39;w&#39;,&#39;x&#39;,&#39;y&#39;,&#39;z&#39;</text>
</g>
<!-- q6 -->
<g id="node4" class="node">
<title>q6</title>
<ellipse fill="none" stroke="black" cx="6605.48" cy="-210.35" rx="20.13" ry="20.13"/>
<ellipse fill="none" stroke="black" cx="6605.48" cy="-210.35" rx="24.13" ry="24.13"/>
<text xml:space="preserve" text-anchor="middle" x="6605.48" y="-205.3" font-family="Times New Roman,serif" font-size="14.00">q6</text>
</g>
<!-- q0&#45;&gt;q6 -->
<g id="edge2" class="edge">
<title>q0&#45;&gt;q6</title>
<path fill="none" stroke="black" d="M94.65,-309.73C100.55,-309.99 106.79,-310.21 112.6,-310.35 551.49,-320.32 661.35,-310.87 1100.35,-310.35 1251.25,-310.17 6396.16,-361.8 6532.6,-297.35 6557,-285.82 6575.95,-261.51 6588.25,-241.52"/>
<polygon fill="black" stroke="black" points="6591.13,-243.54 6593.15,-233.14 6585.08,-240 6591.13,-243.54"/>
<text xml:space="preserve" text-anchor="middle" x="3825.47" y="-332.95" font-family="Times New Roman,serif" font-size="14.00">0x01,0x02,0x03,0x04,0x05,0x06,0x07,0x08,0x0E,0x0F,0x10,0x11,0x12,0x13,0x14,0x15,0x16,0x17,0x18,0x19,0x1A,0x1B,0x1C,0x1D,0x1E,0x1F,&#39;&quot;&#39;,&#39;$&#39;,&#39;%&#39;,&#39;&amp;&#39;,&#39;&#39;&#39;,&#39;(&#39;,&#39;)&#39;,&#39;*&#39;,&#39;+&#39;,&#39;.&#39;,&#39;/&#39;,&#39;:&#39;,&#39;;&#39;,&#39;?&#39;,&#39;@&#39;,&#39;[&#39;,&#39;&#39;,&#39;]&#39;,&#39;^&#39;,&#39;`&#39;,&#39;{&#39;,&#39;|&#39;,&#39;}&#39;,&#39;~&#39;,0x7F,0x80,0x81,0x82,0x83,0x84,0x85,0x86,0x87,0x88,0x89,0x8A,0x8B,0x8C,0x8D,0x8E,0x8F,0x90,0x91,0x92,0x93,0x94,0x95,0x96,0x97,0x98,0x99,0x9A,0x9B,0x9C,0x9D,0x9E,0x9F,0xA0,0xA1,0xA2,0xA3,0xA4,0xA5,0xA6,0xA7,0xA8,0xA9,0xAA,0xAB,0xAC,0xAD,0xAE,0xAF,0xB0,0xB1,0xB2,0xB3,0xB4,0xB5,0xB6,0xB7,0xB8,0xB9,0xBA,0xBB,0xBC,0xBD,0xBE,0xBF,0xC0,0xC1,0xC2,0xC3,0xC4,0xC5,0xC6,0xC7,0xC8,0xC9,0xCA,0xCB,0xCC,0xCD,0xCE,0xCF,0xD0,0xD1,0xD2,0xD3,0xD4,0xD5,0xD6,0xD7,0xD8,0xD9,0xDA,0xDB,0xDC,0xDD,0xDE,0xDF,0xE0,0xE1,0xE2,0xE3,0xE4,0xE5,0xE6,0xE7,0xE8,0xE9,0xEA,0xEB,0xEC,0xED,0xEE,0xEF,0xF0,0xF1,0xF2,0xF3,0xF4,0xF5,0xF6,0xF7,0xF8,0xF9,0xFA,0xFB,0xFC,0xFD,0xFE,0xFF</text>
</g>
<!-- q1 -->
<g id="node5" class="node">
<title>q1</title>
<ellipse fill="none" stroke="black" cx="3825.47" cy="-268.35" rx="20.13" ry="20.13"/>
<text xml:space="preserve" text-anchor="middle" x="3825.47" y="-263.3" font-family="Times New Roman,serif" font-size="14.00">q1</text>
</g>
<!-- q0&#45;&gt;q1 -->
<g id="edge4" class="edge">
<title>q0&#45;&gt;q1</title>
<path fill="none" stroke="black" d="M91.55,-299.29C98.23,-297.06 105.62,-294.99 112.6,-293.85 496.57,-230.86 3459.77,-264.02 3793.86,-267.98"/>
<polygon fill="black" stroke="black" points="3793.48,-271.47 3803.52,-268.09 3793.56,-264.47 3793.48,-271.47"/>
<text xml:space="preserve" text-anchor="middle" x="606.48" y="-297.05" font-family="Times New Roman,serif" font-size="14.00">&#39;&#45;&#39;</text>
</g>
<!-- q2 -->
<g id="node6" class="node">
<title>q2</title>
<ellipse fill="none" stroke="black" cx="3825.47" cy="-210.35" rx="20.13" ry="20.13"/>
<text xml:space="preserve" text-anchor="middle" x="3825.47" y="-205.3" font-family="Times New Roman,serif" font-size="14.00">q2</text>
</g>
<!-- q0&#45;&gt;q2 -->
<g id="edge3" class="edge">
<title>q0&#45;&gt;q2</title>
<path fill="none" stroke="black" d="M74.21,-290.72C80.58,-274.01 92.75,-249.87 112.6,-238.85 282.98,-144.21 3446.81,-203 3793.68,-209.74"/>
<polygon fill="black" stroke="black" points="3793.45,-213.24 3803.52,-209.93 3793.59,-206.24 3793.45,-213.24"/>
<text xml:space="preserve" text-anchor="middle" x="606.48" y="-242.05" font-family="Times New Roman,serif" font-size="14.00">&#39;!&#39;</text>
</g>
<!-- q5&#45;&gt;q5 -->
<g id="edge6" class="edge">
<title>q5&#45;&gt;q5</title>
<path fill="none" stroke="black" d="M3801.26,-383.86C3142.7,-398.06 3150.77,-425.48 3825.47,-425.48 4496.23,-425.48 4508.13,-398.38 3861.2,-384.11"/>
<polygon fill="black" stroke="black" points="3861.28,-380.61 3851.2,-383.89 3861.12,-387.61 3861.28,-380.61"/>
<text xml:space="preserve" text-anchor="middle" x="3825.47" y="-428.68" font-family="Times New Roman,serif" font-size="14.00">&#39;0&#39;,&#39;1&#39;,&#39;2&#39;,&#39;3&#39;,&#39;4&#39;,&#39;5&#39;,&#39;6&#39;,&#39;7&#39;,&#39;8&#39;,&#39;9&#39;,&#39;A&#39;,&#39;B&#39;,&#39;C&#39;,&#39;D&#39;,&#39;E&#39;,&#39;F&#39;,&#39;G&#39;,&#39;H&#39;,&#39;I&#39;,&#39;J&#39;,&#39;K&#39;,&#39;L&#39;,&#39;M&#39;,&#39;N&#39;,&#39;O&#39;,&#39;P&#39;,&#39;Q&#39;,&#39;R&#39;,&#39;S&#39;,&#39;T&#39;,&#39;U&#39;,&#39;V&#39;,&#39;W&#39;,&#39;X&#39;,&#39;Y&#39;,&#39;Z&#39;,&#39;_&#39;,&#39;a&#39;,&#39;b&#39;,&#39;c&#39;,&#39;d&#39;,&#39;e&#39;,&#39;f&#39;,&#39;g&#39;,&#39;h&#39;,&#39;i&#39;,&#39;j&#39;,&#39;k&#39;,&#39;l&#39;,&#39;m&#39;,&#39;n&#39;,&#39;o&#39;,&#39;p&#39;,&#39;q&#39;,&#39;r&#39;,&#39;s&#39;,&#39;t&#39;,&#39;u&#39;,&#39;v&#39;,&#39;w&#39;,&#39;x&#39;,&#39;y&#39;,&#39;z&#39;</text>
</g>
<!-- q1&#45;&gt;q6 -->
<g id="edge8" class="edge">
<title>q1&#45;&gt;q6</title>
<path fill="none" stroke="black" d="M3845.79,-268.79C4058.67,-273.61 5969.96,-314.4 6532.6,-239.35 6546.6,-237.48 6550.15,-236.37 6563.35,-231.35 6566.8,-230.04 6570.33,-228.52 6573.82,-226.91"/>
<polygon fill="black" stroke="black" points="6575.16,-230.15 6582.6,-222.6 6572.08,-223.86 6575.16,-230.15"/>
<text xml:space="preserve" text-anchor="middle" x="6556.98" y="-238.99" font-family="Times New Roman,serif" font-size="14.00">&#39;&gt;&#39;</text>
</g>
<!-- q2&#45;&gt;q6 -->
<g id="edge7" class="edge">
<title>q2&#45;&gt;q6</title>
<path fill="none" stroke="black" d="M3846.08,-210.35C4076.61,-210.35 6268.41,-210.35 6570.11,-210.35"/>
<polygon fill="black" stroke="black" points="6569.67,-213.85 6579.67,-210.35 6569.67,-206.85 6569.67,-213.85"/>
<text xml:space="preserve" text-anchor="middle" x="6556.98" y="-213.55" font-family="Times New Roman,serif" font-size="14.00">&#39;=&#39;</text>
</g>
<!-- q3 -->
<g id="node7" class="node">
<title>q3</title>
<ellipse fill="none" stroke="black" cx="3825.47" cy="-152.35" rx="20.13" ry="20.13"/>
<text xml:space="preserve" text-anchor="middle" x="3825.47" y="-147.3" font-family="Times New Roman,serif" font-size="14.00">q3</text>
</g>
<!-- q3&#45;&gt;q6 -->
<g id="edge9" class="edge">
<title>q3&#45;&gt;q6</title>
<path fill="none" stroke="black" d="M3845.8,-151.86C4058.73,-146.6 5970.54,-102.03 6532.6,-181.35 6546.62,-183.33 6561.25,-188.57 6573.63,-194.07"/>
<polygon fill="black" stroke="black" points="6571.94,-197.15 6582.48,-198.25 6574.93,-190.82 6571.94,-197.15"/>
<text xml:space="preserve" text-anchor="middle" x="6556.98" y="-192.93" font-family="Times New Roman,serif" font-size="14.00">&#39;t&#39;</text>
</g>
<!-- q4 -->
<g id="node8" class="node">
<title>q4</title>
<ellipse fill="none" stroke="black" cx="3825.47" cy="-94.35" rx="20.13" ry="20.13"/>
<text xml:space="preserve" text-anchor="middle" x="3825.47" y="-89.3" font-family="Times New Roman,serif" font-size="14.00">q4</text>
</g>
<!-- q4&#45;&gt;q6 -->
<g id="edge10" class="edge">
<title>q4&#45;&gt;q6</title>
<path fill="none" stroke="black" d="M3845.93,-92.33C4062.3,-70.24 6020.11,121.37 6532.6,-123.35 6556.95,-134.97 6575.91,-159.27 6588.22,-179.24"/>
<polygon fill="black" stroke="black" points="6585.05,-180.75 6593.13,-187.61 6591.09,-177.21 6585.05,-180.75"/>
<text xml:space="preserve" text-anchor="middle" x="6556.98" y="-148.16" font-family="Times New Roman,serif" font-size="14.00">&#39;t&#39;</text>
</g>
</g>
</svg>
