<?xml version="1.0" encoding="UTF-8" standalone="no"?>
<!DOCTYPE svg PUBLIC "-//W3C//DTD SVG 1.1//EN"
 "http://www.w3.org/Graphics/SVG/1.1/DTD/svg11.dtd">
<!-- Generated by graphviz version 14.0.5 (20251129.0259)
 -->
<!-- Title: FSM Pages: 1 -->
<svg width="1229pt" height="1010pt"
 viewBox="0.00 0.00 1229.00 1010.00" xmlns="http://www.w3.org/2000/svg" xmlns:xlink="http://www.w3.org/1999/xlink">
<g id="graph0" class="graph" transform="scale(1 1) rotate(0) translate(4 1005.63)">
<title>FSM</title>
<polygon fill="white" stroke="none" points="-4,4 -4,-1005.63 1224.85,-1005.63 1224.85,4 -4,4"/>
<!-- start -->
<g id="node1" class="node">
<title>start</title>
<ellipse fill="black" stroke="black" cx="1.8" cy="-618.13" rx="1.8" ry="1.8"/>
</g>
<!-- q0 -->
<g id="node2" class="node">
<title>q0</title>
<ellipse fill="none" stroke="black" cx="67.6" cy="-618.13" rx="27" ry="18"/>
<text xml:space="preserve" text-anchor="middle" x="67.6" y="-613.08" font-family="Times New Roman,serif" font-size="14.00">q0</text>
</g>
<!-- start&#45;&gt;q0 -->
<g id="edge1" class="edge">
<title>start&#45;&gt;q0</title>
<path fill="none" stroke="black" d="M3.91,-618.13C7.21,-618.13 17.46,-618.13 28.73,-618.13"/>
<polygon fill="black" stroke="black" points="28.62,-621.63 38.62,-618.13 28.62,-614.63 28.62,-621.63"/>
</g>
<!-- q49 -->
<g id="node3" class="node">
<title>q49</title>
<ellipse fill="none" stroke="black" cx="1192.11" cy="-505.13" rx="24.74" ry="24.74"/>
<ellipse fill="none" stroke="black" cx="1192.11" cy="-505.13" rx="28.74" ry="28.74"/>
<text xml:space="preserve" text-anchor="middle" x="1192.11" y="-500.08" font-family="Times New Roman,serif" font-size="14.00">q49</text>
</g>
<!-- q0&#45;&gt;q49 -->
<g id="edge2" class="edge">
<title>q0&#45;&gt;q49</title>
<path fill="none" stroke="black" d="M69.8,-636.3C73.83,-693.88 87.99,-871.59 112.6,-923.13 128.79,-957.04 132.51,-985.13 170.09,-985.13 170.09,-985.13 170.09,-985.13 1090.88,-985.13 1180.4,-985.13 1190.48,-661.19 1191.23,-545.55"/>
<polygon fill="black" stroke="black" points="1194.73,-545.6 1191.27,-535.59 1187.73,-545.58 1194.73,-545.6"/>
<text xml:space="preserve" text-anchor="middle" x="621.27" y="-988.33" font-family="Times New Roman,serif" font-size="14.00">&#39;!&#39;,&#39;%&#39;,&#39;&amp;&#39;,&#39;(&#39;,&#39;)&#39;,&#39;,&#39;,&#39;/&#39;,&#39;;&#39;,&#39;[&#39;,&#39;]&#39;,&#39;{&#39;,&#39;|&#39;,&#39;}&#39;</text>
</g>
<!-- q1 -->
<g id="node4" class="node">
<title>q1</title>
<ellipse fill="none" stroke="black" cx="233.96" cy="-930.13" rx="20.13" ry="20.13"/>
<text xml:space="preserve" text-anchor="middle" x="233.96" y="-925.08" font-family="Times New Roman,serif" font-size="14.00">q1</text>
</g>
<!-- q0&#45;&gt;q1 -->
<g id="edge3" class="edge">
<title>q0&#45;&gt;q1</title>
<path fill="none" stroke="black" d="M69.18,-636.36C71.26,-690.77 80.06,-850.63 112.6,-889.13 134.82,-915.42 174.62,-924.89 202.35,-928.28"/>
<polygon fill="black" stroke="black" points="201.96,-931.76 212.26,-929.27 202.65,-924.8 201.96,-931.76"/>
<text xml:space="preserve" text-anchor="middle" x="120.47" y="-905.42" font-family="Times New Roman,serif" font-size="14.00">&#39;&#45;&#39;</text>
</g>
<!-- q3 -->
<g id="node6" class="node">
<title>q3</title>
<ellipse fill="none" stroke="black" cx="359.69" cy="-893.13" rx="20.13" ry="20.13"/>
<text xml:space="preserve" text-anchor="middle" x="359.69" y="-888.08" font-family="Times New Roman,serif" font-size="14.00">q3</text>
</g>
<!-- q0&#45;&gt;q3 -->
<g id="edge38" class="edge">
<title>q0&#45;&gt;q3</title>
<path fill="none" stroke="black" d="M69.67,-636.32C72.85,-684.2 83.91,-812.06 112.6,-841.13 170.24,-899.55 275.88,-900.22 327.98,-896.45"/>
<polygon fill="black" stroke="black" points="328.24,-899.94 337.91,-895.61 327.66,-892.96 328.24,-899.94"/>
<text xml:space="preserve" text-anchor="middle" x="171.09" y="-889.09" font-family="Times New Roman,serif" font-size="14.00">&#39;l&#39;</text>
</g>
<!-- q4 -->
<g id="node7" class="node">
<title>q4</title>
<ellipse fill="none" stroke="black" cx="490.04" cy="-838.13" rx="20.13" ry="20.13"/>
<text xml:space="preserve" text-anchor="middle" x="490.04" y="-833.08" font-family="Times New Roman,serif" font-size="14.00">q4</text>
</g>
<!-- q0&#45;&gt;q4 -->
<g id="edge28" class="edge">
<title>q0&#45;&gt;q4</title>
<path fill="none" stroke="black" d="M69.06,-636.31C71.42,-687.16 85.58,-827.13 170.09,-827.13 170.09,-827.13 170.09,-827.13 360.69,-827.13 394.29,-827.13 432.64,-830.92 458.61,-834.05"/>
<polygon fill="black" stroke="black" points="458.09,-837.51 468.44,-835.28 458.96,-830.56 458.09,-837.51"/>
<text xml:space="preserve" text-anchor="middle" x="233.96" y="-830.33" font-family="Times New Roman,serif" font-size="14.00">&#39;g&#39;</text>
</g>
<!-- q5 -->
<g id="node8" class="node">
<title>q5</title>
<ellipse fill="none" stroke="black" cx="171.09" cy="-774.13" rx="20.13" ry="20.13"/>
<text xml:space="preserve" text-anchor="middle" x="171.09" y="-769.08" font-family="Times New Roman,serif" font-size="14.00">q5</text>
</g>
<!-- q0&#45;&gt;q5 -->
<g id="edge51" class="edge">
<title>q0&#45;&gt;q5</title>
<path fill="none" stroke="black" d="M79.25,-634.63C88.15,-648.41 101.18,-668.57 112.6,-686.13 126.15,-706.98 141.57,-730.56 153.02,-748.07"/>
<polygon fill="black" stroke="black" points="150.02,-749.88 158.43,-756.34 155.88,-746.05 150.02,-749.88"/>
<text xml:space="preserve" text-anchor="middle" x="120.47" y="-711.08" font-family="Times New Roman,serif" font-size="14.00">&#39;p&#39;</text>
</g>
<!-- q11 -->
<g id="node14" class="node">
<title>q11</title>
<ellipse fill="none" stroke="black" cx="171.09" cy="-702.13" rx="24.74" ry="24.74"/>
<text xml:space="preserve" text-anchor="middle" x="171.09" y="-697.08" font-family="Times New Roman,serif" font-size="14.00">q11</text>
</g>
<!-- q0&#45;&gt;q11 -->
<g id="edge66" class="edge">
<title>q0&#45;&gt;q11</title>
<path fill="none" stroke="black" d="M85.36,-632C100.96,-644.92 124.5,-664.4 142.81,-679.56"/>
<polygon fill="black" stroke="black" points="140.48,-682.17 150.42,-685.85 144.95,-676.78 140.48,-682.17"/>
<text xml:space="preserve" text-anchor="middle" x="120.47" y="-668.36" font-family="Times New Roman,serif" font-size="14.00">&#39;v&#39;</text>
</g>
<!-- q13 -->
<g id="node16" class="node">
<title>q13</title>
<ellipse fill="none" stroke="black" cx="621.27" cy="-631.13" rx="24.74" ry="24.74"/>
<text xml:space="preserve" text-anchor="middle" x="621.27" y="-626.08" font-family="Times New Roman,serif" font-size="14.00">q13</text>
</g>
<!-- q0&#45;&gt;q13 -->
<g id="edge13" class="edge">
<title>q0&#45;&gt;q13</title>
<path fill="none" stroke="black" d="M93.94,-622.8C114.41,-626.17 144.01,-630.13 170.09,-630.13 170.09,-630.13 170.09,-630.13 423.56,-630.13 479.89,-630.13 545.29,-630.55 584.69,-630.84"/>
<polygon fill="black" stroke="black" points="584.51,-634.34 594.53,-630.92 584.56,-627.34 584.51,-634.34"/>
<text xml:space="preserve" text-anchor="middle" x="296.82" y="-633.33" font-family="Times New Roman,serif" font-size="14.00">&#39;b&#39;</text>
</g>
<!-- q20 -->
<g id="node23" class="node">
<title>q20</title>
<ellipse fill="none" stroke="black" cx="171.09" cy="-574.13" rx="24.74" ry="24.74"/>
<text xml:space="preserve" text-anchor="middle" x="171.09" y="-569.08" font-family="Times New Roman,serif" font-size="14.00">q20</text>
</g>
<!-- q0&#45;&gt;q20 -->
<g id="edge14" class="edge">
<title>q0&#45;&gt;q20</title>
<path fill="none" stroke="black" d="M90.87,-608.48C104.49,-602.57 122.15,-594.92 137.34,-588.33"/>
<polygon fill="black" stroke="black" points="138.7,-591.56 146.48,-584.37 135.91,-585.13 138.7,-591.56"/>
<text xml:space="preserve" text-anchor="middle" x="120.47" y="-601.97" font-family="Times New Roman,serif" font-size="14.00">&#39;c&#39;</text>
</g>
<!-- q27 -->
<g id="node30" class="node">
<title>q27</title>
<ellipse fill="none" stroke="black" cx="819.99" cy="-497.13" rx="24.74" ry="24.74"/>
<text xml:space="preserve" text-anchor="middle" x="819.99" y="-492.08" font-family="Times New Roman,serif" font-size="14.00">q27</text>
</g>
<!-- q0&#45;&gt;q27 -->
<g id="edge19" class="edge">
<title>q0&#45;&gt;q27</title>
<path fill="none" stroke="black" d="M74.92,-600.32C87.56,-568.26 119.21,-504.13 170.09,-504.13 170.09,-504.13 170.09,-504.13 622.27,-504.13 678.79,-504.13 744.39,-501.21 783.74,-499.14"/>
<polygon fill="black" stroke="black" points="783.77,-502.65 793.56,-498.61 783.39,-495.66 783.77,-502.65"/>
<text xml:space="preserve" text-anchor="middle" x="359.69" y="-507.33" font-family="Times New Roman,serif" font-size="14.00">&#39;e&#39;</text>
</g>
<!-- q31 -->
<g id="node34" class="node">
<title>q31</title>
<ellipse fill="none" stroke="black" cx="621.27" cy="-389.13" rx="24.74" ry="24.74"/>
<text xml:space="preserve" text-anchor="middle" x="621.27" y="-384.08" font-family="Times New Roman,serif" font-size="14.00">q31</text>
</g>
<!-- q0&#45;&gt;q31 -->
<g id="edge67" class="edge">
<title>q0&#45;&gt;q31</title>
<path fill="none" stroke="black" d="M69.49,-599.86C72.96,-550.84 89.74,-420.13 170.09,-420.13 170.09,-420.13 170.09,-420.13 423.56,-420.13 481.02,-420.13 546.79,-407.06 585.85,-397.9"/>
<polygon fill="black" stroke="black" points="586.47,-401.35 595.37,-395.61 584.83,-394.54 586.47,-401.35"/>
<text xml:space="preserve" text-anchor="middle" x="296.82" y="-423.33" font-family="Times New Roman,serif" font-size="14.00">&#39;w&#39;</text>
</g>
<!-- q38 -->
<g id="node41" class="node">
<title>q38</title>
<ellipse fill="none" stroke="black" cx="171.09" cy="-361.13" rx="24.74" ry="24.74"/>
<text xml:space="preserve" text-anchor="middle" x="171.09" y="-356.08" font-family="Times New Roman,serif" font-size="14.00">q38</text>
</g>
<!-- q0&#45;&gt;q38 -->
<g id="edge52" class="edge">
<title>q0&#45;&gt;q38</title>
<path fill="none" stroke="black" d="M70.04,-599.88C74.14,-551.77 87.28,-422.91 112.6,-389.63 118.61,-381.73 127.4,-375.88 136.31,-371.6"/>
<polygon fill="black" stroke="black" points="137.39,-374.94 145.27,-367.86 134.69,-368.48 137.39,-374.94"/>
<text xml:space="preserve" text-anchor="middle" x="120.47" y="-392.83" font-family="Times New Roman,serif" font-size="14.00">&#39;r&#39;</text>
</g>
<!-- q41 -->
<g id="node44" class="node">
<title>q41</title>
<ellipse fill="none" stroke="black" cx="171.09" cy="-282.13" rx="24.74" ry="24.74"/>
<text xml:space="preserve" text-anchor="middle" x="171.09" y="-277.08" font-family="Times New Roman,serif" font-size="14.00">q41</text>
</g>
<!-- q0&#45;&gt;q41 -->
<g id="edge8" class="edge">
<title>q0&#45;&gt;q41</title>
<path fill="none" stroke="black" d="M68.62,-599.75C69.3,-555.67 74.88,-441.26 112.6,-355.63 120.42,-337.88 133.51,-320.65 145.22,-307.34"/>
<polygon fill="black" stroke="black" points="147.48,-310.06 151.63,-300.31 142.3,-305.34 147.48,-310.06"/>
<text xml:space="preserve" text-anchor="middle" x="120.47" y="-358.83" font-family="Times New Roman,serif" font-size="14.00">&#39;a&#39;</text>
</g>
<!-- q43 -->
<g id="node46" class="node">
<title>q43</title>
<ellipse fill="none" stroke="black" cx="171.09" cy="-191.13" rx="24.74" ry="24.74"/>
<text xml:space="preserve" text-anchor="middle" x="171.09" y="-186.08" font-family="Times New Roman,serif" font-size="14.00">q43</text>
</g>
<!-- q0&#45;&gt;q43 -->
<g id="edge42" class="edge">
<title>q0&#45;&gt;q43</title>
<path fill="none" stroke="black" d="M69.21,-599.91C71.24,-551.44 79.68,-415.76 112.6,-308.63 122.09,-277.76 138.77,-244.92 151.74,-221.84"/>
<polygon fill="black" stroke="black" points="154.71,-223.69 156.64,-213.27 148.63,-220.21 154.71,-223.69"/>
<text xml:space="preserve" text-anchor="middle" x="120.47" y="-311.83" font-family="Times New Roman,serif" font-size="14.00">&#39;m&#39;</text>
</g>
<!-- q45 -->
<g id="node48" class="node">
<title>q45</title>
<ellipse fill="none" stroke="black" cx="621.27" cy="-128.13" rx="24.74" ry="24.74"/>
<text xml:space="preserve" text-anchor="middle" x="621.27" y="-123.08" font-family="Times New Roman,serif" font-size="14.00">q45</text>
</g>
<!-- q0&#45;&gt;q45 -->
<g id="edge32" class="edge">
<title>q0&#45;&gt;q45</title>
<path fill="none" stroke="black" d="M68.44,-599.67C68.16,-510.9 72.69,-132.13 170.09,-132.13 170.09,-132.13 170.09,-132.13 423.56,-132.13 479.9,-132.13 545.3,-130.47 584.7,-129.29"/>
<polygon fill="black" stroke="black" points="584.65,-132.79 594.54,-128.99 584.43,-125.8 584.65,-132.79"/>
<text xml:space="preserve" text-anchor="middle" x="296.82" y="-135.33" font-family="Times New Roman,serif" font-size="14.00">&#39;i&#39;</text>
</g>
<!-- q1&#45;&gt;q49 -->
<g id="edge7" class="edge">
<title>q1&#45;&gt;q49</title>
<path fill="none" stroke="black" d="M254.21,-932.4C278.52,-935.07 321.65,-939.13 358.69,-939.13 358.69,-939.13 358.69,-939.13 1090.88,-939.13 1171.2,-939.13 1187.16,-653.41 1190.33,-545.63"/>
<polygon fill="black" stroke="black" points="1193.82,-545.88 1190.59,-535.79 1186.83,-545.7 1193.82,-545.88"/>
<text xml:space="preserve" text-anchor="middle" x="752.51" y="-942.33" font-family="Times New Roman,serif" font-size="14.00">&#39;&gt;&#39;</text>
</g>
<!-- q2 -->
<g id="node5" class="node">
<title>q2</title>
<ellipse fill="none" stroke="black" cx="1089.88" cy="-20.13" rx="20.13" ry="20.13"/>
<text xml:space="preserve" text-anchor="middle" x="1089.88" y="-15.08" font-family="Times New Roman,serif" font-size="14.00">q2</text>
</g>
<!-- q2&#45;&gt;q49 -->
<g id="edge6" class="edge">
<title>q2&#45;&gt;q49</title>
<path fill="none" stroke="black" d="M1106.98,-31.31C1119.73,-41.13 1136.78,-56.64 1145.37,-74.63 1178.07,-143.1 1187.64,-371.34 1190.23,-464.75"/>
<polygon fill="black" stroke="black" points="1186.73,-464.82 1190.49,-474.72 1193.72,-464.63 1186.73,-464.82"/>
<text xml:space="preserve" text-anchor="middle" x="1139" y="-77.83" font-family="Times New Roman,serif" font-size="14.00">&#39;=&#39;</text>
</g>
<!-- q3&#45;&gt;q49 -->
<g id="edge59" class="edge">
<title>q3&#45;&gt;q49</title>
<path fill="none" stroke="black" d="M380.26,-893.38C405.43,-893.67 450.49,-894.13 489.04,-894.13 489.04,-894.13 489.04,-894.13 1090.88,-894.13 1162.34,-894.13 1183.62,-644.88 1189.27,-545.41"/>
<polygon fill="black" stroke="black" points="1192.75,-545.74 1189.8,-535.56 1185.76,-545.36 1192.75,-545.74"/>
<text xml:space="preserve" text-anchor="middle" x="819.99" y="-897.33" font-family="Times New Roman,serif" font-size="14.00">&#39;t&#39;</text>
</g>
<!-- q4&#45;&gt;q49 -->
<g id="edge60" class="edge">
<title>q4&#45;&gt;q49</title>
<path fill="none" stroke="black" d="M510.57,-840.01C604.13,-848.68 1006.43,-882 1114.62,-825.13 1132.37,-815.8 1136.58,-810.15 1145.37,-792.13 1185.02,-710.9 1191.58,-602.8 1191.94,-545.23"/>
<polygon fill="black" stroke="black" points="1195.44,-545.58 1191.93,-535.58 1188.44,-545.59 1195.44,-545.58"/>
<text xml:space="preserve" text-anchor="middle" x="887.46" y="-860.78" font-family="Times New Roman,serif" font-size="14.00">&#39;t&#39;</text>
</g>
<!-- q6 -->
<g id="node9" class="node">
<title>q6</title>
<ellipse fill="none" stroke="black" cx="296.82" cy="-779.13" rx="20.13" ry="20.13"/>
<text xml:space="preserve" text-anchor="middle" x="296.82" y="-774.08" font-family="Times New Roman,serif" font-size="14.00">q6</text>
</g>
<!-- q5&#45;&gt;q6 -->
<g id="edge53" class="edge">
<title>q5&#45;&gt;q6</title>
<path fill="none" stroke="black" d="M191.69,-774.92C211.42,-775.72 242.14,-776.96 265.11,-777.89"/>
<polygon fill="black" stroke="black" points="264.66,-781.37 274.8,-778.28 264.95,-774.38 264.66,-781.37"/>
<text xml:space="preserve" text-anchor="middle" x="233.96" y="-780.57" font-family="Times New Roman,serif" font-size="14.00">&#39;r&#39;</text>
</g>
<!-- q7 -->
<g id="node10" class="node">
<title>q7</title>
<ellipse fill="none" stroke="black" cx="422.56" cy="-779.13" rx="20.13" ry="20.13"/>
<text xml:space="preserve" text-anchor="middle" x="422.56" y="-774.08" font-family="Times New Roman,serif" font-size="14.00">q7</text>
</g>
<!-- q6&#45;&gt;q7 -->
<g id="edge49" class="edge">
<title>q6&#45;&gt;q7</title>
<path fill="none" stroke="black" d="M317.43,-779.13C337.16,-779.13 367.88,-779.13 390.84,-779.13"/>
<polygon fill="black" stroke="black" points="390.53,-782.63 400.53,-779.13 390.53,-775.63 390.53,-782.63"/>
<text xml:space="preserve" text-anchor="middle" x="359.69" y="-782.33" font-family="Times New Roman,serif" font-size="14.00">&#39;o&#39;</text>
</g>
<!-- q8 -->
<g id="node11" class="node">
<title>q8</title>
<ellipse fill="none" stroke="black" cx="621.27" cy="-800.13" rx="20.13" ry="20.13"/>
<text xml:space="preserve" text-anchor="middle" x="621.27" y="-795.08" font-family="Times New Roman,serif" font-size="14.00">q8</text>
</g>
<!-- q7&#45;&gt;q8 -->
<g id="edge29" class="edge">
<title>q7&#45;&gt;q8</title>
<path fill="none" stroke="black" d="M442.78,-781.18C476.94,-784.83 548.46,-792.47 589.53,-796.85"/>
<polygon fill="black" stroke="black" points="589.16,-800.33 599.47,-797.91 589.9,-793.37 589.16,-800.33"/>
<text xml:space="preserve" text-anchor="middle" x="490.04" y="-791.57" font-family="Times New Roman,serif" font-size="14.00">&#39;g&#39;</text>
</g>
<!-- q9 -->
<g id="node12" class="node">
<title>q9</title>
<ellipse fill="none" stroke="black" cx="819.99" cy="-800.13" rx="20.13" ry="20.13"/>
<text xml:space="preserve" text-anchor="middle" x="819.99" y="-795.08" font-family="Times New Roman,serif" font-size="14.00">q9</text>
</g>
<!-- q8&#45;&gt;q9 -->
<g id="edge54" class="edge">
<title>q8&#45;&gt;q9</title>
<path fill="none" stroke="black" d="M641.85,-800.13C676.1,-800.13 747.11,-800.13 788.06,-800.13"/>
<polygon fill="black" stroke="black" points="787.97,-803.63 797.97,-800.13 787.97,-796.63 787.97,-803.63"/>
<text xml:space="preserve" text-anchor="middle" x="752.51" y="-803.33" font-family="Times New Roman,serif" font-size="14.00">&#39;r&#39;</text>
</g>
<!-- q10 -->
<g id="node13" class="node">
<title>q10</title>
<ellipse fill="none" stroke="black" cx="1022.41" cy="-804.13" rx="24.74" ry="24.74"/>
<text xml:space="preserve" text-anchor="middle" x="1022.41" y="-799.08" font-family="Times New Roman,serif" font-size="14.00">q10</text>
</g>
<!-- q9&#45;&gt;q10 -->
<g id="edge9" class="edge">
<title>q9&#45;&gt;q10</title>
<path fill="none" stroke="black" d="M840.57,-800.52C874.26,-801.19 943.64,-802.58 986,-803.42"/>
<polygon fill="black" stroke="black" points="985.85,-806.92 995.92,-803.62 985.99,-799.92 985.85,-806.92"/>
<text xml:space="preserve" text-anchor="middle" x="887.46" y="-805.07" font-family="Times New Roman,serif" font-size="14.00">&#39;a&#39;</text>
</g>
<!-- q10&#45;&gt;q49 -->
<g id="edge43" class="edge">
<title>q10&#45;&gt;q49</title>
<path fill="none" stroke="black" d="M1047.42,-805.22C1075.2,-805.08 1120.33,-800.26 1145.37,-773.13 1175.42,-740.58 1186,-611.65 1189.5,-545.2"/>
<polygon fill="black" stroke="black" points="1192.98,-545.61 1189.98,-535.45 1185.99,-545.27 1192.98,-545.61"/>
<text xml:space="preserve" text-anchor="middle" x="1089.88" y="-807.64" font-family="Times New Roman,serif" font-size="14.00">&#39;m&#39;</text>
</g>
<!-- q12 -->
<g id="node15" class="node">
<title>q12</title>
<ellipse fill="none" stroke="black" cx="752.51" cy="-752.13" rx="24.74" ry="24.74"/>
<text xml:space="preserve" text-anchor="middle" x="752.51" y="-747.08" font-family="Times New Roman,serif" font-size="14.00">q12</text>
</g>
<!-- q11&#45;&gt;q12 -->
<g id="edge10" class="edge">
<title>q11&#45;&gt;q12</title>
<path fill="none" stroke="black" d="M195.13,-708.73C219.82,-715.21 260.26,-724.13 295.82,-724.13 295.82,-724.13 295.82,-724.13 491.04,-724.13 572.3,-724.13 667.02,-737.77 716.82,-746.01"/>
<polygon fill="black" stroke="black" points="715.96,-749.42 726.41,-747.63 717.13,-742.51 715.96,-749.42"/>
<text xml:space="preserve" text-anchor="middle" x="359.69" y="-727.33" font-family="Times New Roman,serif" font-size="14.00">&#39;a&#39;</text>
</g>
<!-- q12&#45;&gt;q49 -->
<g id="edge55" class="edge">
<title>q12&#45;&gt;q49</title>
<path fill="none" stroke="black" d="M777.57,-754.68C849.41,-761.77 1060.74,-778.82 1114.62,-740.13 1176.48,-695.72 1189.33,-599.94 1191.4,-545.36"/>
<polygon fill="black" stroke="black" points="1194.89,-545.65 1191.65,-535.56 1187.89,-545.47 1194.89,-545.65"/>
<text xml:space="preserve" text-anchor="middle" x="954.94" y="-767.78" font-family="Times New Roman,serif" font-size="14.00">&#39;r&#39;</text>
</g>
<!-- q14 -->
<g id="node17" class="node">
<title>q14</title>
<ellipse fill="none" stroke="black" cx="819.99" cy="-698.13" rx="24.74" ry="24.74"/>
<text xml:space="preserve" text-anchor="middle" x="819.99" y="-693.08" font-family="Times New Roman,serif" font-size="14.00">q14</text>
</g>
<!-- q13&#45;&gt;q14 -->
<g id="edge56" class="edge">
<title>q13&#45;&gt;q14</title>
<path fill="none" stroke="black" d="M645.22,-638.95C679.8,-650.72 745.44,-673.08 785.4,-686.69"/>
<polygon fill="black" stroke="black" points="784.15,-689.96 794.75,-689.88 786.41,-683.34 784.15,-689.96"/>
<text xml:space="preserve" text-anchor="middle" x="752.51" y="-686.86" font-family="Times New Roman,serif" font-size="14.00">&#39;r&#39;</text>
</g>
<!-- q17 -->
<g id="node20" class="node">
<title>q17</title>
<ellipse fill="none" stroke="black" cx="819.99" cy="-631.13" rx="24.74" ry="24.74"/>
<text xml:space="preserve" text-anchor="middle" x="819.99" y="-626.08" font-family="Times New Roman,serif" font-size="14.00">q17</text>
</g>
<!-- q13&#45;&gt;q17 -->
<g id="edge20" class="edge">
<title>q13&#45;&gt;q17</title>
<path fill="none" stroke="black" d="M646.39,-631.13C680.7,-631.13 743.82,-631.13 783.48,-631.13"/>
<polygon fill="black" stroke="black" points="783.46,-634.63 793.46,-631.13 783.46,-627.63 783.46,-634.63"/>
<text xml:space="preserve" text-anchor="middle" x="752.51" y="-634.33" font-family="Times New Roman,serif" font-size="14.00">&#39;e&#39;</text>
</g>
<!-- q15 -->
<g id="node18" class="node">
<title>q15</title>
<ellipse fill="none" stroke="black" cx="954.94" cy="-698.13" rx="24.74" ry="24.74"/>
<text xml:space="preserve" text-anchor="middle" x="954.94" y="-693.08" font-family="Times New Roman,serif" font-size="14.00">q15</text>
</g>
<!-- q14&#45;&gt;q15 -->
<g id="edge21" class="edge">
<title>q14&#45;&gt;q15</title>
<path fill="none" stroke="black" d="M845.06,-698.13C865.58,-698.13 895.35,-698.13 918.57,-698.13"/>
<polygon fill="black" stroke="black" points="918.52,-701.63 928.52,-698.13 918.52,-694.63 918.52,-701.63"/>
<text xml:space="preserve" text-anchor="middle" x="887.46" y="-701.33" font-family="Times New Roman,serif" font-size="14.00">&#39;e&#39;</text>
</g>
<!-- q16 -->
<g id="node19" class="node">
<title>q16</title>
<ellipse fill="none" stroke="black" cx="1089.88" cy="-706.13" rx="24.74" ry="24.74"/>
<text xml:space="preserve" text-anchor="middle" x="1089.88" y="-701.08" font-family="Times New Roman,serif" font-size="14.00">q16</text>
</g>
<!-- q15&#45;&gt;q16 -->
<g id="edge11" class="edge">
<title>q15&#45;&gt;q16</title>
<path fill="none" stroke="black" d="M980.01,-699.58C1000.53,-700.81 1030.3,-702.61 1053.52,-704"/>
<polygon fill="black" stroke="black" points="1053.28,-707.5 1063.48,-704.6 1053.71,-700.51 1053.28,-707.5"/>
<text xml:space="preserve" text-anchor="middle" x="1022.41" y="-706.74" font-family="Times New Roman,serif" font-size="14.00">&#39;a&#39;</text>
</g>
<!-- q16&#45;&gt;q49 -->
<g id="edge37" class="edge">
<title>q16&#45;&gt;q49</title>
<path fill="none" stroke="black" d="M1105.85,-686.66C1108.91,-682.31 1112,-677.65 1114.62,-673.13 1139.64,-629.98 1162.51,-577.19 1176.6,-542.44"/>
<polygon fill="black" stroke="black" points="1179.82,-543.82 1180.29,-533.23 1173.32,-541.21 1179.82,-543.82"/>
<text xml:space="preserve" text-anchor="middle" x="1139" y="-640.77" font-family="Times New Roman,serif" font-size="14.00">&#39;k&#39;</text>
</g>
<!-- q18 -->
<g id="node21" class="node">
<title>q18</title>
<ellipse fill="none" stroke="black" cx="954.94" cy="-631.13" rx="24.74" ry="24.74"/>
<text xml:space="preserve" text-anchor="middle" x="954.94" y="-626.08" font-family="Times New Roman,serif" font-size="14.00">q18</text>
</g>
<!-- q17&#45;&gt;q18 -->
<g id="edge30" class="edge">
<title>q17&#45;&gt;q18</title>
<path fill="none" stroke="black" d="M845.06,-631.13C865.58,-631.13 895.35,-631.13 918.57,-631.13"/>
<polygon fill="black" stroke="black" points="918.52,-634.63 928.52,-631.13 918.52,-627.63 918.52,-634.63"/>
<text xml:space="preserve" text-anchor="middle" x="887.46" y="-634.33" font-family="Times New Roman,serif" font-size="14.00">&#39;g&#39;</text>
</g>
<!-- q19 -->
<g id="node22" class="node">
<title>q19</title>
<ellipse fill="none" stroke="black" cx="1089.88" cy="-639.13" rx="24.74" ry="24.74"/>
<text xml:space="preserve" text-anchor="middle" x="1089.88" y="-634.08" font-family="Times New Roman,serif" font-size="14.00">q19</text>
</g>
<!-- q18&#45;&gt;q19 -->
<g id="edge33" class="edge">
<title>q18&#45;&gt;q19</title>
<path fill="none" stroke="black" d="M980.01,-632.58C1000.53,-633.81 1030.3,-635.61 1053.52,-637"/>
<polygon fill="black" stroke="black" points="1053.28,-640.5 1063.48,-637.6 1053.71,-633.51 1053.28,-640.5"/>
<text xml:space="preserve" text-anchor="middle" x="1022.41" y="-639.74" font-family="Times New Roman,serif" font-size="14.00">&#39;i&#39;</text>
</g>
<!-- q19&#45;&gt;q49 -->
<g id="edge44" class="edge">
<title>q19&#45;&gt;q49</title>
<path fill="none" stroke="black" d="M1105.46,-619.65C1121.71,-597.92 1148.22,-562.48 1167.45,-536.77"/>
<polygon fill="black" stroke="black" points="1170.08,-539.09 1173.27,-528.99 1164.47,-534.9 1170.08,-539.09"/>
<text xml:space="preserve" text-anchor="middle" x="1139" y="-583.35" font-family="Times New Roman,serif" font-size="14.00">&#39;n&#39;</text>
</g>
<!-- q21 -->
<g id="node24" class="node">
<title>q21</title>
<ellipse fill="none" stroke="black" cx="296.82" cy="-568.13" rx="24.74" ry="24.74"/>
<text xml:space="preserve" text-anchor="middle" x="296.82" y="-563.08" font-family="Times New Roman,serif" font-size="14.00">q21</text>
</g>
<!-- q20&#45;&gt;q21 -->
<g id="edge50" class="edge">
<title>q20&#45;&gt;q21</title>
<path fill="none" stroke="black" d="M196.24,-572.96C214.46,-572.08 239.75,-570.85 260.28,-569.85"/>
<polygon fill="black" stroke="black" points="260.4,-573.35 270.22,-569.37 260.06,-566.36 260.4,-573.35"/>
<text xml:space="preserve" text-anchor="middle" x="233.96" y="-575.22" font-family="Times New Roman,serif" font-size="14.00">&#39;o&#39;</text>
</g>
<!-- q22 -->
<g id="node25" class="node">
<title>q22</title>
<ellipse fill="none" stroke="black" cx="422.56" cy="-567.13" rx="24.74" ry="24.74"/>
<text xml:space="preserve" text-anchor="middle" x="422.56" y="-562.08" font-family="Times New Roman,serif" font-size="14.00">q22</text>
</g>
<!-- q21&#45;&gt;q22 -->
<g id="edge45" class="edge">
<title>q21&#45;&gt;q22</title>
<path fill="none" stroke="black" d="M321.98,-567.94C340.2,-567.79 365.49,-567.58 386.02,-567.42"/>
<polygon fill="black" stroke="black" points="385.99,-570.92 395.96,-567.34 385.93,-563.92 385.99,-570.92"/>
<text xml:space="preserve" text-anchor="middle" x="359.69" y="-570.98" font-family="Times New Roman,serif" font-size="14.00">&#39;n&#39;</text>
</g>
<!-- q23 -->
<g id="node26" class="node">
<title>q23</title>
<ellipse fill="none" stroke="black" cx="621.27" cy="-564.13" rx="24.74" ry="24.74"/>
<text xml:space="preserve" text-anchor="middle" x="621.27" y="-559.08" font-family="Times New Roman,serif" font-size="14.00">q23</text>
</g>
<!-- q22&#45;&gt;q23 -->
<g id="edge61" class="edge">
<title>q22&#45;&gt;q23</title>
<path fill="none" stroke="black" d="M447.68,-566.76C481.99,-566.24 545.11,-565.28 584.77,-564.67"/>
<polygon fill="black" stroke="black" points="584.8,-568.17 594.75,-564.52 584.7,-561.17 584.8,-568.17"/>
<text xml:space="preserve" text-anchor="middle" x="490.04" y="-569.68" font-family="Times New Roman,serif" font-size="14.00">&#39;t&#39;</text>
</g>
<!-- q24 -->
<g id="node27" class="node">
<title>q24</title>
<ellipse fill="none" stroke="black" cx="819.99" cy="-564.13" rx="24.74" ry="24.74"/>
<text xml:space="preserve" text-anchor="middle" x="819.99" y="-559.08" font-family="Times New Roman,serif" font-size="14.00">q24</text>
</g>
<!-- q23&#45;&gt;q24 -->
<g id="edge34" class="edge">
<title>q23&#45;&gt;q24</title>
<path fill="none" stroke="black" d="M646.39,-564.13C680.7,-564.13 743.82,-564.13 783.48,-564.13"/>
<polygon fill="black" stroke="black" points="783.46,-567.63 793.46,-564.13 783.46,-560.63 783.46,-567.63"/>
<text xml:space="preserve" text-anchor="middle" x="752.51" y="-567.33" font-family="Times New Roman,serif" font-size="14.00">&#39;i&#39;</text>
</g>
<!-- q25 -->
<g id="node28" class="node">
<title>q25</title>
<ellipse fill="none" stroke="black" cx="954.94" cy="-564.13" rx="24.74" ry="24.74"/>
<text xml:space="preserve" text-anchor="middle" x="954.94" y="-559.08" font-family="Times New Roman,serif" font-size="14.00">q25</text>
</g>
<!-- q24&#45;&gt;q25 -->
<g id="edge46" class="edge">
<title>q24&#45;&gt;q25</title>
<path fill="none" stroke="black" d="M845.06,-564.13C865.58,-564.13 895.35,-564.13 918.57,-564.13"/>
<polygon fill="black" stroke="black" points="918.52,-567.63 928.52,-564.13 918.52,-560.63 918.52,-567.63"/>
<text xml:space="preserve" text-anchor="middle" x="887.46" y="-567.33" font-family="Times New Roman,serif" font-size="14.00">&#39;n&#39;</text>
</g>
<!-- q26 -->
<g id="node29" class="node">
<title>q26</title>
<ellipse fill="none" stroke="black" cx="1089.88" cy="-572.13" rx="24.74" ry="24.74"/>
<text xml:space="preserve" text-anchor="middle" x="1089.88" y="-567.08" font-family="Times New Roman,serif" font-size="14.00">q26</text>
</g>
<!-- q25&#45;&gt;q26 -->
<g id="edge64" class="edge">
<title>q25&#45;&gt;q26</title>
<path fill="none" stroke="black" d="M980.01,-565.58C1000.53,-566.81 1030.3,-568.61 1053.52,-570"/>
<polygon fill="black" stroke="black" points="1053.28,-573.5 1063.48,-570.6 1053.71,-566.51 1053.28,-573.5"/>
<text xml:space="preserve" text-anchor="middle" x="1022.41" y="-572.74" font-family="Times New Roman,serif" font-size="14.00">&#39;u&#39;</text>
</g>
<!-- q26&#45;&gt;q49 -->
<g id="edge22" class="edge">
<title>q26&#45;&gt;q49</title>
<path fill="none" stroke="black" d="M1111.17,-558.57C1124.71,-549.52 1142.83,-537.4 1158.4,-527"/>
<polygon fill="black" stroke="black" points="1160.07,-530.09 1166.44,-521.63 1156.18,-524.27 1160.07,-530.09"/>
<text xml:space="preserve" text-anchor="middle" x="1139" y="-545.84" font-family="Times New Roman,serif" font-size="14.00">&#39;e&#39;</text>
</g>
<!-- q28 -->
<g id="node31" class="node">
<title>q28</title>
<ellipse fill="none" stroke="black" cx="954.94" cy="-497.13" rx="24.74" ry="24.74"/>
<text xml:space="preserve" text-anchor="middle" x="954.94" y="-492.08" font-family="Times New Roman,serif" font-size="14.00">q28</text>
</g>
<!-- q27&#45;&gt;q28 -->
<g id="edge39" class="edge">
<title>q27&#45;&gt;q28</title>
<path fill="none" stroke="black" d="M845.06,-497.13C865.58,-497.13 895.35,-497.13 918.57,-497.13"/>
<polygon fill="black" stroke="black" points="918.52,-500.63 928.52,-497.13 918.52,-493.63 918.52,-500.63"/>
<text xml:space="preserve" text-anchor="middle" x="887.46" y="-500.33" font-family="Times New Roman,serif" font-size="14.00">&#39;l&#39;</text>
</g>
<!-- q30 -->
<g id="node33" class="node">
<title>q30</title>
<ellipse fill="none" stroke="black" cx="1022.41" cy="-445.13" rx="24.74" ry="24.74"/>
<text xml:space="preserve" text-anchor="middle" x="1022.41" y="-440.08" font-family="Times New Roman,serif" font-size="14.00">q30</text>
</g>
<!-- q27&#45;&gt;q30 -->
<g id="edge47" class="edge">
<title>q27&#45;&gt;q30</title>
<path fill="none" stroke="black" d="M842.2,-485.39C848.64,-482.19 855.84,-478.96 862.72,-476.63 904.06,-462.61 953.69,-454 986.31,-449.4"/>
<polygon fill="black" stroke="black" points="986.57,-452.9 996.01,-448.09 985.63,-445.96 986.57,-452.9"/>
<text xml:space="preserve" text-anchor="middle" x="887.46" y="-479.83" font-family="Times New Roman,serif" font-size="14.00">&#39;n&#39;</text>
</g>
<!-- q29 -->
<g id="node32" class="node">
<title>q29</title>
<ellipse fill="none" stroke="black" cx="1089.88" cy="-505.13" rx="24.74" ry="24.74"/>
<text xml:space="preserve" text-anchor="middle" x="1089.88" y="-500.08" font-family="Times New Roman,serif" font-size="14.00">q29</text>
</g>
<!-- q28&#45;&gt;q29 -->
<g id="edge58" class="edge">
<title>q28&#45;&gt;q29</title>
<path fill="none" stroke="black" d="M980.01,-498.58C1000.53,-499.81 1030.3,-501.61 1053.52,-503"/>
<polygon fill="black" stroke="black" points="1053.28,-506.5 1063.48,-503.6 1053.71,-499.51 1053.28,-506.5"/>
<text xml:space="preserve" text-anchor="middle" x="1022.41" y="-505.74" font-family="Times New Roman,serif" font-size="14.00">&#39;s&#39;</text>
</g>
<!-- q29&#45;&gt;q49 -->
<g id="edge23" class="edge">
<title>q29&#45;&gt;q49</title>
<path fill="none" stroke="black" d="M1114.89,-505.13C1125.86,-505.13 1139.15,-505.13 1151.54,-505.13"/>
<polygon fill="black" stroke="black" points="1151.52,-508.63 1161.52,-505.13 1151.52,-501.63 1151.52,-508.63"/>
<text xml:space="preserve" text-anchor="middle" x="1139" y="-508.33" font-family="Times New Roman,serif" font-size="14.00">&#39;e&#39;</text>
</g>
<!-- q30&#45;&gt;q49 -->
<g id="edge15" class="edge">
<title>q30&#45;&gt;q49</title>
<path fill="none" stroke="black" d="M1047.34,-444.55C1066.15,-444.81 1092.74,-446.8 1114.62,-454.63 1130.9,-460.46 1147.13,-470.43 1160.43,-479.98"/>
<polygon fill="black" stroke="black" points="1158.24,-482.71 1168.34,-485.9 1162.43,-477.11 1158.24,-482.71"/>
<text xml:space="preserve" text-anchor="middle" x="1089.88" y="-457.83" font-family="Times New Roman,serif" font-size="14.00">&#39;d&#39;</text>
</g>
<!-- q32 -->
<g id="node35" class="node">
<title>q32</title>
<ellipse fill="none" stroke="black" cx="819.99" cy="-389.13" rx="24.74" ry="24.74"/>
<text xml:space="preserve" text-anchor="middle" x="819.99" y="-384.08" font-family="Times New Roman,serif" font-size="14.00">q32</text>
</g>
<!-- q31&#45;&gt;q32 -->
<g id="edge57" class="edge">
<title>q31&#45;&gt;q32</title>
<path fill="none" stroke="black" d="M646.39,-389.13C680.7,-389.13 743.82,-389.13 783.48,-389.13"/>
<polygon fill="black" stroke="black" points="783.46,-392.63 793.46,-389.13 783.46,-385.63 783.46,-392.63"/>
<text xml:space="preserve" text-anchor="middle" x="752.51" y="-392.33" font-family="Times New Roman,serif" font-size="14.00">&#39;r&#39;</text>
</g>
<!-- q35 -->
<g id="node38" class="node">
<title>q35</title>
<ellipse fill="none" stroke="black" cx="819.99" cy="-322.13" rx="24.74" ry="24.74"/>
<text xml:space="preserve" text-anchor="middle" x="819.99" y="-317.08" font-family="Times New Roman,serif" font-size="14.00">q35</text>
</g>
<!-- q31&#45;&gt;q35 -->
<g id="edge31" class="edge">
<title>q31&#45;&gt;q35</title>
<path fill="none" stroke="black" d="M645.22,-381.31C679.8,-369.54 745.44,-347.18 785.4,-333.57"/>
<polygon fill="black" stroke="black" points="786.41,-336.92 794.75,-330.39 784.15,-330.3 786.41,-336.92"/>
<text xml:space="preserve" text-anchor="middle" x="752.51" y="-354.82" font-family="Times New Roman,serif" font-size="14.00">&#39;h&#39;</text>
</g>
<!-- q33 -->
<g id="node36" class="node">
<title>q33</title>
<ellipse fill="none" stroke="black" cx="954.94" cy="-389.13" rx="24.74" ry="24.74"/>
<text xml:space="preserve" text-anchor="middle" x="954.94" y="-384.08" font-family="Times New Roman,serif" font-size="14.00">q33</text>
</g>
<!-- q32&#45;&gt;q33 -->
<g id="edge35" class="edge">
<title>q32&#45;&gt;q33</title>
<path fill="none" stroke="black" d="M845.06,-389.13C865.58,-389.13 895.35,-389.13 918.57,-389.13"/>
<polygon fill="black" stroke="black" points="918.52,-392.63 928.52,-389.13 918.52,-385.63 918.52,-392.63"/>
<text xml:space="preserve" text-anchor="middle" x="887.46" y="-392.33" font-family="Times New Roman,serif" font-size="14.00">&#39;i&#39;</text>
</g>
<!-- q34 -->
<g id="node37" class="node">
<title>q34</title>
<ellipse fill="none" stroke="black" cx="1089.88" cy="-385.13" rx="24.74" ry="24.74"/>
<text xml:space="preserve" text-anchor="middle" x="1089.88" y="-380.08" font-family="Times New Roman,serif" font-size="14.00">q34</text>
</g>
<!-- q33&#45;&gt;q34 -->
<g id="edge62" class="edge">
<title>q33&#45;&gt;q34</title>
<path fill="none" stroke="black" d="M980.01,-388.41C1000.53,-387.79 1030.3,-386.89 1053.52,-386.2"/>
<polygon fill="black" stroke="black" points="1053.58,-389.69 1063.48,-385.9 1053.37,-382.7 1053.58,-389.69"/>
<text xml:space="preserve" text-anchor="middle" x="1022.41" y="-391.04" font-family="Times New Roman,serif" font-size="14.00">&#39;t&#39;</text>
</g>
<!-- q34&#45;&gt;q49 -->
<g id="edge24" class="edge">
<title>q34&#45;&gt;q49</title>
<path fill="none" stroke="black" d="M1113.31,-394C1124.02,-399.09 1136.42,-406.34 1145.37,-415.63 1159.5,-430.31 1170.26,-450.22 1177.78,-467.53"/>
<polygon fill="black" stroke="black" points="1174.43,-468.59 1181.47,-476.51 1180.9,-465.93 1174.43,-468.59"/>
<text xml:space="preserve" text-anchor="middle" x="1139" y="-418.83" font-family="Times New Roman,serif" font-size="14.00">&#39;e&#39;</text>
</g>
<!-- q36 -->
<g id="node39" class="node">
<title>q36</title>
<ellipse fill="none" stroke="black" cx="954.94" cy="-322.13" rx="24.74" ry="24.74"/>
<text xml:space="preserve" text-anchor="middle" x="954.94" y="-317.08" font-family="Times New Roman,serif" font-size="14.00">q36</text>
</g>
<!-- q35&#45;&gt;q36 -->
<g id="edge36" class="edge">
<title>q35&#45;&gt;q36</title>
<path fill="none" stroke="black" d="M845.06,-322.13C865.58,-322.13 895.35,-322.13 918.57,-322.13"/>
<polygon fill="black" stroke="black" points="918.52,-325.63 928.52,-322.13 918.52,-318.63 918.52,-325.63"/>
<text xml:space="preserve" text-anchor="middle" x="887.46" y="-325.33" font-family="Times New Roman,serif" font-size="14.00">&#39;i&#39;</text>
</g>
<!-- q37 -->
<g id="node40" class="node">
<title>q37</title>
<ellipse fill="none" stroke="black" cx="1089.88" cy="-318.13" rx="24.74" ry="24.74"/>
<text xml:space="preserve" text-anchor="middle" x="1089.88" y="-313.08" font-family="Times New Roman,serif" font-size="14.00">q37</text>
</g>
<!-- q36&#45;&gt;q37 -->
<g id="edge40" class="edge">
<title>q36&#45;&gt;q37</title>
<path fill="none" stroke="black" d="M980.01,-321.41C1000.53,-320.79 1030.3,-319.89 1053.52,-319.2"/>
<polygon fill="black" stroke="black" points="1053.58,-322.69 1063.48,-318.9 1053.37,-315.7 1053.58,-322.69"/>
<text xml:space="preserve" text-anchor="middle" x="1022.41" y="-324.04" font-family="Times New Roman,serif" font-size="14.00">&#39;l&#39;</text>
</g>
<!-- q37&#45;&gt;q49 -->
<g id="edge25" class="edge">
<title>q37&#45;&gt;q49</title>
<path fill="none" stroke="black" d="M1107.58,-335.62C1119.32,-348.62 1134.78,-367.23 1145.37,-385.63 1160.11,-411.23 1171.87,-442.47 1179.78,-466.58"/>
<polygon fill="black" stroke="black" points="1176.41,-467.55 1182.78,-476.01 1183.08,-465.42 1176.41,-467.55"/>
<text xml:space="preserve" text-anchor="middle" x="1139" y="-388.83" font-family="Times New Roman,serif" font-size="14.00">&#39;e&#39;</text>
</g>
<!-- q39 -->
<g id="node42" class="node">
<title>q39</title>
<ellipse fill="none" stroke="black" cx="296.82" cy="-351.13" rx="24.74" ry="24.74"/>
<text xml:space="preserve" text-anchor="middle" x="296.82" y="-346.08" font-family="Times New Roman,serif" font-size="14.00">q39</text>
</g>
<!-- q38&#45;&gt;q39 -->
<g id="edge26" class="edge">
<title>q38&#45;&gt;q39</title>
<path fill="none" stroke="black" d="M196.24,-359.18C214.46,-357.71 239.75,-355.66 260.28,-354"/>
<polygon fill="black" stroke="black" points="260.54,-357.49 270.23,-353.2 259.98,-350.52 260.54,-357.49"/>
<text xml:space="preserve" text-anchor="middle" x="233.96" y="-360.81" font-family="Times New Roman,serif" font-size="14.00">&#39;e&#39;</text>
</g>
<!-- q40 -->
<g id="node43" class="node">
<title>q40</title>
<ellipse fill="none" stroke="black" cx="490.04" cy="-308.13" rx="24.74" ry="24.74"/>
<text xml:space="preserve" text-anchor="middle" x="490.04" y="-303.08" font-family="Times New Roman,serif" font-size="14.00">q40</text>
</g>
<!-- q39&#45;&gt;q40 -->
<g id="edge12" class="edge">
<title>q39&#45;&gt;q40</title>
<path fill="none" stroke="black" d="M321.27,-345.86C354.53,-338.38 415.64,-324.64 454.21,-315.96"/>
<polygon fill="black" stroke="black" points="454.93,-319.39 463.92,-313.78 453.4,-312.56 454.93,-319.39"/>
<text xml:space="preserve" text-anchor="middle" x="359.69" y="-344.26" font-family="Times New Roman,serif" font-size="14.00">&#39;a&#39;</text>
</g>
<!-- q40&#45;&gt;q49 -->
<g id="edge16" class="edge">
<title>q40&#45;&gt;q49</title>
<path fill="none" stroke="black" d="M514.83,-303.56C616.67,-284.55 1015.16,-215.81 1114.62,-284.13 1173.15,-324.33 1187.41,-412.74 1190.57,-464.73"/>
<polygon fill="black" stroke="black" points="1187.07,-464.85 1191.05,-474.67 1194.06,-464.51 1187.07,-464.85"/>
<text xml:space="preserve" text-anchor="middle" x="887.46" y="-260.63" font-family="Times New Roman,serif" font-size="14.00">&#39;d&#39;</text>
</g>
<!-- q42 -->
<g id="node45" class="node">
<title>q42</title>
<ellipse fill="none" stroke="black" cx="887.46" cy="-221.13" rx="24.74" ry="24.74"/>
<text xml:space="preserve" text-anchor="middle" x="887.46" y="-216.08" font-family="Times New Roman,serif" font-size="14.00">q42</text>
</g>
<!-- q41&#45;&gt;q42 -->
<g id="edge17" class="edge">
<title>q41&#45;&gt;q42</title>
<path fill="none" stroke="black" d="M191.56,-267.93C215.05,-252.23 256.33,-229.13 295.82,-229.13 295.82,-229.13 295.82,-229.13 753.51,-229.13 786.75,-229.13 824.57,-226.61 851.35,-224.4"/>
<polygon fill="black" stroke="black" points="851.3,-227.92 860.96,-223.57 850.7,-220.94 851.3,-227.92"/>
<text xml:space="preserve" text-anchor="middle" x="422.56" y="-232.33" font-family="Times New Roman,serif" font-size="14.00">&#39;d&#39;</text>
</g>
<!-- q42&#45;&gt;q49 -->
<g id="edge18" class="edge">
<title>q42&#45;&gt;q49</title>
<path fill="none" stroke="black" d="M911.88,-215.56C962.29,-205.09 1081.66,-188.79 1145.37,-251.13 1175.14,-280.26 1185.8,-401.06 1189.4,-465.01"/>
<polygon fill="black" stroke="black" points="1185.89,-464.94 1189.91,-474.74 1192.88,-464.57 1185.89,-464.94"/>
<text xml:space="preserve" text-anchor="middle" x="1022.41" y="-211.07" font-family="Times New Roman,serif" font-size="14.00">&#39;d&#39;</text>
</g>
<!-- q44 -->
<g id="node47" class="node">
<title>q44</title>
<ellipse fill="none" stroke="black" cx="1022.41" cy="-179.13" rx="24.74" ry="24.74"/>
<text xml:space="preserve" text-anchor="middle" x="1022.41" y="-174.08" font-family="Times New Roman,serif" font-size="14.00">q44</text>
</g>
<!-- q43&#45;&gt;q44 -->
<g id="edge65" class="edge">
<title>q43&#45;&gt;q44</title>
<path fill="none" stroke="black" d="M195.76,-188.08C220.63,-185.14 260.91,-181.13 295.82,-181.13 295.82,-181.13 295.82,-181.13 888.46,-181.13 921.49,-181.13 959.13,-180.51 985.91,-179.96"/>
<polygon fill="black" stroke="black" points="985.96,-183.46 995.88,-179.74 985.81,-176.46 985.96,-183.46"/>
<text xml:space="preserve" text-anchor="middle" x="490.04" y="-184.33" font-family="Times New Roman,serif" font-size="14.00">&#39;u&#39;</text>
</g>
<!-- q44&#45;&gt;q49 -->
<g id="edge41" class="edge">
<title>q44&#45;&gt;q49</title>
<path fill="none" stroke="black" d="M1047.37,-177.75C1076.24,-177.57 1123.57,-182.38 1145.37,-213.13 1173.57,-252.9 1185.11,-394.49 1189.18,-464.85"/>
<polygon fill="black" stroke="black" points="1185.68,-465.01 1189.73,-474.8 1192.67,-464.62 1185.68,-465.01"/>
<text xml:space="preserve" text-anchor="middle" x="1089.88" y="-192.12" font-family="Times New Roman,serif" font-size="14.00">&#39;l&#39;</text>
</g>
<!-- q45&#45;&gt;q49 -->
<g id="edge27" class="edge">
<title>q45&#45;&gt;q49</title>
<path fill="none" stroke="black" d="M646.18,-129.73C683.2,-132.07 756.61,-136.13 818.99,-136.13 818.99,-136.13 818.99,-136.13 1090.88,-136.13 1127.24,-136.13 1129.95,-164.21 1145.37,-197.13 1167.29,-243.91 1181.97,-392.49 1188.01,-464.81"/>
<polygon fill="black" stroke="black" points="1184.51,-464.96 1188.81,-474.64 1191.49,-464.39 1184.51,-464.96"/>
<text xml:space="preserve" text-anchor="middle" x="954.94" y="-139.33" font-family="Times New Roman,serif" font-size="14.00">&#39;f&#39;</text>
</g>
<!-- q46 -->
<g id="node49" class="node">
<title>q46</title>
<ellipse fill="none" stroke="black" cx="819.99" cy="-81.13" rx="24.74" ry="24.74"/>
<text xml:space="preserve" text-anchor="middle" x="819.99" y="-76.08" font-family="Times New Roman,serif" font-size="14.00">q46</text>
</g>
<!-- q45&#45;&gt;q46 -->
<g id="edge48" class="edge">
<title>q45&#45;&gt;q46</title>
<path fill="none" stroke="black" d="M645.61,-122.56C680.07,-114.32 744.77,-98.86 784.65,-89.34"/>
<polygon fill="black" stroke="black" points="785.29,-92.78 794.21,-87.05 783.67,-85.97 785.29,-92.78"/>
<text xml:space="preserve" text-anchor="middle" x="752.51" y="-105.02" font-family="Times New Roman,serif" font-size="14.00">&#39;n&#39;</text>
</g>
<!-- q47 -->
<g id="node50" class="node">
<title>q47</title>
<ellipse fill="none" stroke="black" cx="954.94" cy="-75.13" rx="24.74" ry="24.74"/>
<text xml:space="preserve" text-anchor="middle" x="954.94" y="-70.08" font-family="Times New Roman,serif" font-size="14.00">q47</text>
</g>
<!-- q46&#45;&gt;q47 -->
<g id="edge63" class="edge">
<title>q46&#45;&gt;q47</title>
<path fill="none" stroke="black" d="M845.06,-80.04C865.58,-79.12 895.35,-77.78 918.57,-76.73"/>
<polygon fill="black" stroke="black" points="918.69,-80.23 928.53,-76.28 918.38,-73.23 918.69,-80.23"/>
<text xml:space="preserve" text-anchor="middle" x="887.46" y="-82.39" font-family="Times New Roman,serif" font-size="14.00">&#39;t&#39;</text>
</g>
<!-- q48 -->
<g id="node51" class="node">
<title>q48</title>
<ellipse fill="none" stroke="black" cx="1089.88" cy="-83.13" rx="24.74" ry="24.74"/>
<text xml:space="preserve" text-anchor="middle" x="1089.88" y="-78.08" font-family="Times New Roman,serif" font-size="14.00">q48</text>
</g>
<!-- q47&#45;&gt;q48 -->
<g id="edge5" class="edge">
<title>q47&#45;&gt;q48</title>
<path fill="none" stroke="black" d="M980.01,-76.58C1000.53,-77.81 1030.3,-79.61 1053.52,-81"/>
<polygon fill="black" stroke="black" points="1053.28,-84.5 1063.48,-81.6 1053.71,-77.51 1053.28,-84.5"/>
<text xml:space="preserve" text-anchor="middle" x="1022.41" y="-83.74" font-family="Times New Roman,serif" font-size="14.00">&#39;3&#39;</text>
</g>
<!-- q48&#45;&gt;q49 -->
<g id="edge4" class="edge">
<title>q48&#45;&gt;q49</title>
<path fill="none" stroke="black" d="M1114.69,-87.21C1125.75,-90.37 1138.03,-95.91 1145.37,-105.63 1187.54,-161.49 1191.71,-374.9 1191.54,-464.82"/>
<polygon fill="black" stroke="black" points="1188.04,-464.63 1191.5,-474.64 1195.04,-464.65 1188.04,-464.63"/>
<text xml:space="preserve" text-anchor="middle" x="1139" y="-108.83" font-family="Times New Roman,serif" font-size="14.00">&#39;2&#39;</text>
</g>
</g>
</svg>
