<?xml version="1.0" encoding="UTF-8" standalone="no"?>
<!DOCTYPE svg PUBLIC "-//W3C//DTD SVG 1.1//EN"
 "http://www.w3.org/Graphics/SVG/1.1/DTD/svg11.dtd">
<!-- Generated by graphviz version 14.0.5 (20251129.0259)
 -->
<!-- Title: FSM Pages: 1 -->
<svg width="6635pt" height="504pt"
 viewBox="0.00 0.00 6635.00 504.00" xmlns="http://www.w3.org/2000/svg" xmlns:xlink="http://www.w3.org/1999/xlink">
<g id="graph0" class="graph" transform="scale(1 1) rotate(0) translate(4 499.66)">
<title>FSM</title>
<polygon fill="white" stroke="none" points="-4,4 -4,-499.66 6630.61,-499.66 6630.61,4 -4,4"/>
<!-- start -->
<g id="node1" class="node">
<title>start</title>
<ellipse fill="black" stroke="black" cx="1.8" cy="-266.6" rx="1.8" ry="1.8"/>
</g>
<!-- q0 -->
<g id="node2" class="node">
<title>q0</title>
<ellipse fill="none" stroke="black" cx="67.6" cy="-266.6" rx="27" ry="18"/>
<text xml:space="preserve" text-anchor="middle" x="67.6" y="-261.55" font-family="Times New Roman,serif" font-size="14.00">q0</text>
</g>
<!-- start&#45;&gt;q0 -->
<g id="edge1" class="edge">
<title>start&#45;&gt;q0</title>
<path fill="none" stroke="black" d="M3.91,-266.6C7.21,-266.6 17.46,-266.6 28.73,-266.6"/>
<polygon fill="black" stroke="black" points="28.62,-270.1 38.62,-266.6 28.62,-263.1 28.62,-270.1"/>
</g>
<!-- q3 -->
<g id="node3" class="node">
<title>q3</title>
<ellipse fill="none" stroke="black" cx="3816.47" cy="-426.6" rx="20.13" ry="20.13"/>
<ellipse fill="none" stroke="black" cx="3816.47" cy="-426.6" rx="24.13" ry="24.13"/>
<text xml:space="preserve" text-anchor="middle" x="3816.47" y="-421.55" font-family="Times New Roman,serif" font-size="14.00">q3</text>
</g>
<!-- q0&#45;&gt;q3 -->
<g id="edge3" class="edge">
<title>q0&#45;&gt;q3</title>
<path fill="none" stroke="black" d="M70.95,-284.77C74.99,-307.77 85.62,-346.57 112.6,-364.6 478.89,-609.33 662.92,-384.47 1103.35,-393.6 2200.66,-416.33 3548.06,-425.02 3780.53,-426.4"/>
<polygon fill="black" stroke="black" points="3780.4,-429.9 3790.42,-426.46 3780.44,-422.9 3780.4,-429.9"/>
<text xml:space="preserve" text-anchor="middle" x="598.98" y="-482.36" font-family="Times New Roman,serif" font-size="14.00">&#39;!&#39;</text>
</g>
<!-- q6 -->
<g id="node4" class="node">
<title>q6</title>
<ellipse fill="none" stroke="black" cx="3816.47" cy="-325.6" rx="20.13" ry="20.13"/>
<ellipse fill="none" stroke="black" cx="3816.47" cy="-325.6" rx="24.13" ry="24.13"/>
<text xml:space="preserve" text-anchor="middle" x="3816.47" y="-320.55" font-family="Times New Roman,serif" font-size="14.00">q6</text>
</g>
<!-- q0&#45;&gt;q6 -->
<g id="edge5" class="edge">
<title>q0&#45;&gt;q6</title>
<path fill="none" stroke="black" d="M91.58,-275.32C98.26,-277.47 105.64,-279.47 112.6,-280.6 872.76,-403.35 3452.36,-335.78 3780.95,-326.59"/>
<polygon fill="black" stroke="black" points="3780.68,-330.09 3790.58,-326.31 3780.48,-323.1 3780.68,-330.09"/>
<text xml:space="preserve" text-anchor="middle" x="598.98" y="-347.38" font-family="Times New Roman,serif" font-size="14.00">&#39;0&#39;,&#39;1&#39;,&#39;2&#39;,&#39;3&#39;,&#39;4&#39;,&#39;5&#39;,&#39;6&#39;,&#39;7&#39;,&#39;8&#39;,&#39;9&#39;,&#39;A&#39;,&#39;B&#39;,&#39;C&#39;,&#39;D&#39;,&#39;E&#39;,&#39;F&#39;,&#39;G&#39;,&#39;H&#39;,&#39;I&#39;,&#39;J&#39;,&#39;K&#39;,&#39;L&#39;,&#39;M&#39;,&#39;N&#39;,&#39;O&#39;,&#39;P&#39;,&#39;Q&#39;,&#39;R&#39;,&#39;S&#39;,&#39;T&#39;,&#39;U&#39;,&#39;V&#39;,&#39;W&#39;,&#39;X&#39;,&#39;Y&#39;,&#39;Z&#39;,&#39;a&#39;,&#39;b&#39;,&#39;c&#39;,&#39;d&#39;,&#39;e&#39;,&#39;f&#39;,&#39;g&#39;,&#39;h&#39;,&#39;i&#39;,&#39;j&#39;,&#39;k&#39;,&#39;l&#39;,&#39;m&#39;,&#39;n&#39;,&#39;o&#39;,&#39;p&#39;,&#39;q&#39;,&#39;r&#39;,&#39;s&#39;,&#39;t&#39;,&#39;u&#39;,&#39;v&#39;,&#39;w&#39;,&#39;x&#39;,&#39;y&#39;,&#39;z&#39;</text>
</g>
<!-- q7 -->
<g id="node5" class="node">
<title>q7</title>
<ellipse fill="none" stroke="black" cx="6602.48" cy="-210.6" rx="20.13" ry="20.13"/>
<ellipse fill="none" stroke="black" cx="6602.48" cy="-210.6" rx="24.13" ry="24.13"/>
<text xml:space="preserve" text-anchor="middle" x="6602.48" y="-205.55" font-family="Times New Roman,serif" font-size="14.00">q7</text>
</g>
<!-- q0&#45;&gt;q7 -->
<g id="edge2" class="edge">
<title>q0&#45;&gt;q7</title>
<path fill="none" stroke="black" d="M94.84,-266.68C528.17,-267.98 6187.29,-284.12 6529.6,-239.6 6543.6,-237.78 6547.15,-236.62 6560.35,-231.6 6563.8,-230.29 6567.33,-228.77 6570.82,-227.16"/>
<polygon fill="black" stroke="black" points="6572.16,-230.4 6579.6,-222.85 6569.08,-224.11 6572.16,-230.4"/>
<text xml:space="preserve" text-anchor="middle" x="3816.47" y="-273.79" font-family="Times New Roman,serif" font-size="14.00">0x01,0x02,0x03,0x04,0x05,0x06,0x07,0x08,0x0E,0x0F,0x10,0x11,0x12,0x13,0x14,0x15,0x16,0x17,0x18,0x19,0x1A,0x1B,0x1C,0x1D,0x1E,0x1F,&#39;&quot;&#39;,&#39;#&#39;,&#39;$&#39;,&#39;%&#39;,&#39;&amp;&#39;,&#39;&#39;&#39;,&#39;(&#39;,&#39;)&#39;,&#39;,&#39;,&#39;.&#39;,&#39;/&#39;,&#39;:&#39;,&#39;;&#39;,&#39;&gt;&#39;,&#39;?&#39;,&#39;@&#39;,&#39;[&#39;,&#39;&#39;,&#39;]&#39;,&#39;^&#39;,&#39;`&#39;,&#39;{&#39;,&#39;|&#39;,&#39;}&#39;,&#39;~&#39;,0x7F,0x80,0x81,0x82,0x83,0x84,0x85,0x86,0x87,0x88,0x89,0x8A,0x8B,0x8C,0x8D,0x8E,0x8F,0x90,0x91,0x92,0x93,0x94,0x95,0x96,0x97,0x98,0x99,0x9A,0x9B,0x9C,0x9D,0x9E,0x9F,0xA0,0xA1,0xA2,0xA3,0xA4,0xA5,0xA6,0xA7,0xA8,0xA9,0xAA,0xAB,0xAC,0xAD,0xAE,0xAF,0xB0,0xB1,0xB2,0xB3,0xB4,0xB5,0xB6,0xB7,0xB8,0xB9,0xBA,0xBB,0xBC,0xBD,0xBE,0xBF,0xC0,0xC1,0xC2,0xC3,0xC4,0xC5,0xC6,0xC7,0xC8,0xC9,0xCA,0xCB,0xCC,0xCD,0xCE,0xCF,0xD0,0xD1,0xD2,0xD3,0xD4,0xD5,0xD6,0xD7,0xD8,0xD9,0xDA,0xDB,0xDC,0xDD,0xDE,0xDF,0xE0,0xE1,0xE2,0xE3,0xE4,0xE5,0xE6,0xE7,0xE8,0xE9,0xEA,0xEB,0xEC,0xED,0xEE,0xEF,0xF0,0xF1,0xF2,0xF3,0xF4,0xF5,0xF6,0xF7,0xF8,0xF9,0xFA,0xFB,0xFC,0xFD,0xFE,0xFF</text>
</g>
<!-- q1 -->
<g id="node6" class="node">
<title>q1</title>
<ellipse fill="none" stroke="black" cx="3816.47" cy="-210.6" rx="20.13" ry="20.13"/>
<text xml:space="preserve" text-anchor="middle" x="3816.47" y="-205.55" font-family="Times New Roman,serif" font-size="14.00">q1</text>
</g>
<!-- q0&#45;&gt;q1 -->
<g id="edge4" class="edge">
<title>q0&#45;&gt;q1</title>
<path fill="none" stroke="black" d="M84.46,-252.13C92.32,-245.92 102.32,-239.35 112.6,-236.1 297.96,-177.43 3440.41,-206.88 3784.89,-210.29"/>
<polygon fill="black" stroke="black" points="3784.62,-213.79 3794.65,-210.39 3784.69,-206.79 3784.62,-213.79"/>
<text xml:space="preserve" text-anchor="middle" x="598.98" y="-239.3" font-family="Times New Roman,serif" font-size="14.00">&#39;&#45;&#39;</text>
</g>
<!-- q2 -->
<g id="node7" class="node">
<title>q2</title>
<ellipse fill="none" stroke="black" cx="3816.47" cy="-152.6" rx="20.13" ry="20.13"/>
<text xml:space="preserve" text-anchor="middle" x="3816.47" y="-147.55" font-family="Times New Roman,serif" font-size="14.00">q2</text>
</g>
<!-- q0&#45;&gt;q2 -->
<g id="edge7" class="edge">
<title>q0&#45;&gt;q2</title>
<path fill="none" stroke="black" d="M72.38,-248.5C77.63,-228.53 89.23,-197.33 112.6,-183.1 278.66,-81.96 3438.29,-144.75 3784.72,-151.95"/>
<polygon fill="black" stroke="black" points="3784.47,-155.44 3794.54,-152.15 3784.62,-148.45 3784.47,-155.44"/>
<text xml:space="preserve" text-anchor="middle" x="598.98" y="-186.3" font-family="Times New Roman,serif" font-size="14.00">&#39;=&#39;</text>
</g>
<!-- q3&#45;&gt;q7 -->
<g id="edge9" class="edge">
<title>q3&#45;&gt;q7</title>
<path fill="none" stroke="black" d="M3840.73,-427.87C4091.79,-441.38 6295.78,-555.06 6529.6,-393.6 6577.74,-360.36 6593.64,-289.6 6598.89,-246.46"/>
<polygon fill="black" stroke="black" points="6602.36,-246.9 6599.95,-236.59 6595.4,-246.16 6602.36,-246.9"/>
<text xml:space="preserve" text-anchor="middle" x="6553.98" y="-379.61" font-family="Times New Roman,serif" font-size="14.00">&#39;=&#39;</text>
</g>
<!-- q6&#45;&gt;q6 -->
<g id="edge6" class="edge">
<title>q6&#45;&gt;q6</title>
<path fill="none" stroke="black" d="M3792.21,-326.11C3132.2,-340.31 3140.29,-367.73 3816.47,-367.73 4488.87,-367.73 4500.64,-340.62 3851.8,-326.35"/>
<polygon fill="black" stroke="black" points="3852.33,-322.86 3842.26,-326.14 3852.18,-329.86 3852.33,-322.86"/>
<text xml:space="preserve" text-anchor="middle" x="3816.47" y="-370.93" font-family="Times New Roman,serif" font-size="14.00">&#39;0&#39;,&#39;1&#39;,&#39;2&#39;,&#39;3&#39;,&#39;4&#39;,&#39;5&#39;,&#39;6&#39;,&#39;7&#39;,&#39;8&#39;,&#39;9&#39;,&#39;A&#39;,&#39;B&#39;,&#39;C&#39;,&#39;D&#39;,&#39;E&#39;,&#39;F&#39;,&#39;G&#39;,&#39;H&#39;,&#39;I&#39;,&#39;J&#39;,&#39;K&#39;,&#39;L&#39;,&#39;M&#39;,&#39;N&#39;,&#39;O&#39;,&#39;P&#39;,&#39;Q&#39;,&#39;R&#39;,&#39;S&#39;,&#39;T&#39;,&#39;U&#39;,&#39;V&#39;,&#39;W&#39;,&#39;X&#39;,&#39;Y&#39;,&#39;Z&#39;,&#39;a&#39;,&#39;b&#39;,&#39;c&#39;,&#39;d&#39;,&#39;e&#39;,&#39;f&#39;,&#39;g&#39;,&#39;h&#39;,&#39;i&#39;,&#39;j&#39;,&#39;k&#39;,&#39;l&#39;,&#39;m&#39;,&#39;n&#39;,&#39;o&#39;,&#39;p&#39;,&#39;q&#39;,&#39;r&#39;,&#39;s&#39;,&#39;t&#39;,&#39;u&#39;,&#39;v&#39;,&#39;w&#39;,&#39;x&#39;,&#39;y&#39;,&#39;z&#39;</text>
</g>
<!-- q1&#45;&gt;q7 -->
<g id="edge10" class="edge">
<title>q1&#45;&gt;q7</title>
<path fill="none" stroke="black" d="M3836.74,-210.6C4065.72,-210.6 6264.35,-210.6 6567,-210.6"/>
<polygon fill="black" stroke="black" points="6566.6,-214.1 6576.6,-210.6 6566.6,-207.1 6566.6,-214.1"/>
<text xml:space="preserve" text-anchor="middle" x="6553.98" y="-213.8" font-family="Times New Roman,serif" font-size="14.00">&#39;&gt;&#39;</text>
</g>
<!-- q2&#45;&gt;q7 -->
<g id="edge8" class="edge">
<title>q2&#45;&gt;q7</title>
<path fill="none" stroke="black" d="M3836.84,-152.11C4050.25,-146.84 5966.3,-102.11 6529.6,-181.6 6543.62,-183.58 6558.25,-188.82 6570.63,-194.32"/>
<polygon fill="black" stroke="black" points="6568.94,-197.4 6579.48,-198.5 6571.93,-191.07 6568.94,-197.4"/>
<text xml:space="preserve" text-anchor="middle" x="6553.98" y="-193.18" font-family="Times New Roman,serif" font-size="14.00">&#39;=&#39;</text>
</g>
<!-- q4 -->
<g id="node8" class="node">
<title>q4</title>
<ellipse fill="none" stroke="black" cx="67.6" cy="-94.6" rx="20.13" ry="20.13"/>
<text xml:space="preserve" text-anchor="middle" x="67.6" y="-89.55" font-family="Times New Roman,serif" font-size="14.00">q4</text>
</g>
<!-- q5 -->
<g id="node9" class="node">
<title>q5</title>
<ellipse fill="none" stroke="black" cx="3816.47" cy="-94.6" rx="20.13" ry="20.13"/>
<text xml:space="preserve" text-anchor="middle" x="3816.47" y="-89.55" font-family="Times New Roman,serif" font-size="14.00">q5</text>
</g>
<!-- q4&#45;&gt;q5 -->
<g id="edge12" class="edge">
<title>q4&#45;&gt;q5</title>
<path fill="none" stroke="black" d="M87.87,-94.6C360.61,-94.6 3442.71,-94.6 3784.7,-94.6"/>
<polygon fill="black" stroke="black" points="3784.6,-98.1 3794.6,-94.6 3784.6,-91.1 3784.6,-98.1"/>
<text xml:space="preserve" text-anchor="middle" x="598.98" y="-97.8" font-family="Times New Roman,serif" font-size="14.00">&#39;u&#39;</text>
</g>
<!-- q5&#45;&gt;q7 -->
<g id="edge11" class="edge">
<title>q5&#45;&gt;q7</title>
<path fill="none" stroke="black" d="M3836.98,-92.58C4053.83,-70.43 6015.97,121.66 6529.6,-123.6 6553.95,-135.22 6572.91,-159.52 6585.22,-179.49"/>
<polygon fill="black" stroke="black" points="6582.05,-181 6590.13,-187.86 6588.09,-177.46 6582.05,-181"/>
<text xml:space="preserve" text-anchor="middle" x="6553.98" y="-148.41" font-family="Times New Roman,serif" font-size="14.00">&#39;l&#39;</text>
</g>
</g>
</svg>
