<?xml version="1.0" encoding="UTF-8" standalone="no"?>
<!DOCTYPE svg PUBLIC "-//W3C//DTD SVG 1.1//EN"
 "http://www.w3.org/Graphics/SVG/1.1/DTD/svg11.dtd">
<!-- Generated by graphviz version 14.0.5 (20251129.0259)
 -->
<!-- Title: FSM Pages: 1 -->
<svg width="1246pt" height="1063pt"
 viewBox="0.00 0.00 1246.00 1063.00" xmlns="http://www.w3.org/2000/svg" xmlns:xlink="http://www.w3.org/1999/xlink">
<g id="graph0" class="graph" transform="scale(1 1) rotate(0) translate(4 1059.26)">
<title>FSM</title>
<polygon fill="white" stroke="none" points="-4,4 -4,-1059.26 1242.06,-1059.26 1242.06,4 -4,4"/>
<!-- start -->
<g id="node1" class="node">
<title>start</title>
<ellipse fill="black" stroke="black" cx="1.8" cy="-594.13" rx="1.8" ry="1.8"/>
</g>
<!-- q0 -->
<g id="node2" class="node">
<title>q0</title>
<ellipse fill="none" stroke="black" cx="67.6" cy="-594.13" rx="27" ry="18"/>
<text xml:space="preserve" text-anchor="middle" x="67.6" y="-589.08" font-family="Times New Roman,serif" font-size="14.00">q0</text>
</g>
<!-- start&#45;&gt;q0 -->
<g id="edge1" class="edge">
<title>start&#45;&gt;q0</title>
<path fill="none" stroke="black" d="M3.91,-594.13C7.21,-594.13 17.46,-594.13 28.73,-594.13"/>
<polygon fill="black" stroke="black" points="28.62,-597.63 38.62,-594.13 28.62,-590.63 28.62,-597.63"/>
</g>
<!-- q3 -->
<g id="node3" class="node">
<title>q3</title>
<ellipse fill="none" stroke="black" cx="237.96" cy="-1031.13" rx="20.13" ry="20.13"/>
<ellipse fill="none" stroke="black" cx="237.96" cy="-1031.13" rx="24.13" ry="24.13"/>
<text xml:space="preserve" text-anchor="middle" x="237.96" y="-1026.08" font-family="Times New Roman,serif" font-size="14.00">q3</text>
</g>
<!-- q0&#45;&gt;q3 -->
<g id="edge2" class="edge">
<title>q0&#45;&gt;q3</title>
<path fill="none" stroke="black" d="M69.34,-612.55C72.53,-688.34 86.25,-973.58 112.6,-1003.13 134.7,-1027.92 173.62,-1033.27 202.05,-1033.45"/>
<polygon fill="black" stroke="black" points="202.06,-1036.95 212,-1033.28 201.94,-1029.95 202.06,-1036.95"/>
<text xml:space="preserve" text-anchor="middle" x="120.47" y="-1018.72" font-family="Times New Roman,serif" font-size="14.00">&#39;!&#39;</text>
</g>
<!-- q50 -->
<g id="node4" class="node">
<title>q50</title>
<ellipse fill="none" stroke="black" cx="1209.32" cy="-526.13" rx="24.74" ry="24.74"/>
<ellipse fill="none" stroke="black" cx="1209.32" cy="-526.13" rx="28.74" ry="28.74"/>
<text xml:space="preserve" text-anchor="middle" x="1209.32" y="-521.08" font-family="Times New Roman,serif" font-size="14.00">q50</text>
</g>
<!-- q0&#45;&gt;q50 -->
<g id="edge3" class="edge">
<title>q0&#45;&gt;q50</title>
<path fill="none" stroke="black" d="M69.3,-612.39C72.77,-690.08 91.23,-989.13 170.09,-989.13 170.09,-989.13 170.09,-989.13 1108.1,-989.13 1140.37,-989.13 1147.7,-969.77 1162.58,-941.13 1196.13,-876.57 1205.19,-658.09 1207.54,-566.77"/>
<polygon fill="black" stroke="black" points="1211.04,-566.86 1207.78,-556.78 1204.04,-566.69 1211.04,-566.86"/>
<text xml:space="preserve" text-anchor="middle" x="638.49" y="-992.33" font-family="Times New Roman,serif" font-size="14.00">&#39;%&#39;,&#39;&amp;&#39;,&#39;(&#39;,&#39;)&#39;,&#39;,&#39;,&#39;&#45;&#39;,&#39;/&#39;,&#39;;&#39;,&#39;[&#39;,&#39;]&#39;,&#39;{&#39;,&#39;|&#39;,&#39;}&#39;</text>
</g>
<!-- q2 -->
<g id="node6" class="node">
<title>q2</title>
<ellipse fill="none" stroke="black" cx="507.25" cy="-943.13" rx="20.13" ry="20.13"/>
<text xml:space="preserve" text-anchor="middle" x="507.25" y="-938.08" font-family="Times New Roman,serif" font-size="14.00">q2</text>
</g>
<!-- q0&#45;&gt;q2 -->
<g id="edge6" class="edge">
<title>q0&#45;&gt;q2</title>
<path fill="none" stroke="black" d="M69.9,-612.4C75.5,-684.21 100.52,-943.13 170.09,-943.13 170.09,-943.13 170.09,-943.13 373.3,-943.13 408.33,-943.13 448.55,-943.13 475.49,-943.13"/>
<polygon fill="black" stroke="black" points="475.36,-946.63 485.36,-943.13 475.36,-939.63 475.36,-946.63"/>
<text xml:space="preserve" text-anchor="middle" x="237.96" y="-946.33" font-family="Times New Roman,serif" font-size="14.00">&#39;=&#39;</text>
</g>
<!-- q4 -->
<g id="node7" class="node">
<title>q4</title>
<ellipse fill="none" stroke="black" cx="171.09" cy="-888.13" rx="20.13" ry="20.13"/>
<text xml:space="preserve" text-anchor="middle" x="171.09" y="-883.08" font-family="Times New Roman,serif" font-size="14.00">q4</text>
</g>
<!-- q0&#45;&gt;q4 -->
<g id="edge10" class="edge">
<title>q0&#45;&gt;q4</title>
<path fill="none" stroke="black" d="M72.61,-612.28C79.59,-643.05 94.92,-707.25 112.6,-760.13 125.23,-797.9 129.54,-807.03 146.35,-843.13 149.05,-848.94 152.13,-855.06 155.15,-860.86"/>
<polygon fill="black" stroke="black" points="151.94,-862.28 159.73,-869.47 158.12,-859 151.94,-862.28"/>
<text xml:space="preserve" text-anchor="middle" x="120.47" y="-805.46" font-family="Times New Roman,serif" font-size="14.00">&#39;a&#39;</text>
</g>
<!-- q6 -->
<g id="node9" class="node">
<title>q6</title>
<ellipse fill="none" stroke="black" cx="171.09" cy="-814.13" rx="20.13" ry="20.13"/>
<text xml:space="preserve" text-anchor="middle" x="171.09" y="-809.08" font-family="Times New Roman,serif" font-size="14.00">q6</text>
</g>
<!-- q0&#45;&gt;q6 -->
<g id="edge53" class="edge">
<title>q0&#45;&gt;q6</title>
<path fill="none" stroke="black" d="M74.4,-611.74C82.18,-634.76 96.85,-676.12 112.6,-710.13 125.14,-737.2 141.85,-766.86 154.02,-787.56"/>
<polygon fill="black" stroke="black" points="150.87,-789.11 158.99,-795.92 156.89,-785.54 150.87,-789.11"/>
<text xml:space="preserve" text-anchor="middle" x="120.47" y="-742.55" font-family="Times New Roman,serif" font-size="14.00">&#39;p&#39;</text>
</g>
<!-- q12 -->
<g id="node15" class="node">
<title>q12</title>
<ellipse fill="none" stroke="black" cx="171.09" cy="-737.13" rx="24.74" ry="24.74"/>
<text xml:space="preserve" text-anchor="middle" x="171.09" y="-732.08" font-family="Times New Roman,serif" font-size="14.00">q12</text>
</g>
<!-- q0&#45;&gt;q12 -->
<g id="edge68" class="edge">
<title>q0&#45;&gt;q12</title>
<path fill="none" stroke="black" d="M77.36,-611.29C85.68,-627.06 98.93,-650.86 112.6,-670.13 122.66,-684.32 135.1,-699.09 145.82,-711.14"/>
<polygon fill="black" stroke="black" points="142.96,-713.19 152.26,-718.27 148.16,-708.5 142.96,-713.19"/>
<text xml:space="preserve" text-anchor="middle" x="120.47" y="-692.59" font-family="Times New Roman,serif" font-size="14.00">&#39;v&#39;</text>
</g>
<!-- q14 -->
<g id="node17" class="node">
<title>q14</title>
<ellipse fill="none" stroke="black" cx="638.49" cy="-671.13" rx="24.74" ry="24.74"/>
<text xml:space="preserve" text-anchor="middle" x="638.49" y="-666.08" font-family="Times New Roman,serif" font-size="14.00">q14</text>
</g>
<!-- q0&#45;&gt;q14 -->
<g id="edge15" class="edge">
<title>q0&#45;&gt;q14</title>
<path fill="none" stroke="black" d="M82.42,-609.46C100.58,-627.82 134.37,-656.13 170.09,-656.13 170.09,-656.13 170.09,-656.13 440.77,-656.13 497.42,-656.13 562.98,-662.39 602.29,-666.82"/>
<polygon fill="black" stroke="black" points="601.77,-670.29 612.11,-667.96 602.57,-663.33 601.77,-670.29"/>
<text xml:space="preserve" text-anchor="middle" x="304.82" y="-659.33" font-family="Times New Roman,serif" font-size="14.00">&#39;b&#39;</text>
</g>
<!-- q21 -->
<g id="node24" class="node">
<title>q21</title>
<ellipse fill="none" stroke="black" cx="837.2" cy="-594.13" rx="24.74" ry="24.74"/>
<text xml:space="preserve" text-anchor="middle" x="837.2" y="-589.08" font-family="Times New Roman,serif" font-size="14.00">q21</text>
</g>
<!-- q0&#45;&gt;q21 -->
<g id="edge21" class="edge">
<title>q0&#45;&gt;q21</title>
<path fill="none" stroke="black" d="M94.88,-594.13C115.37,-594.13 144.54,-594.13 170.09,-594.13 170.09,-594.13 170.09,-594.13 639.49,-594.13 695.81,-594.13 761.22,-594.13 800.62,-594.13"/>
<polygon fill="black" stroke="black" points="800.46,-597.63 810.46,-594.13 800.46,-590.63 800.46,-597.63"/>
<text xml:space="preserve" text-anchor="middle" x="372.3" y="-597.33" font-family="Times New Roman,serif" font-size="14.00">&#39;e&#39;</text>
</g>
<!-- q25 -->
<g id="node28" class="node">
<title>q25</title>
<ellipse fill="none" stroke="black" cx="171.09" cy="-541.13" rx="24.74" ry="24.74"/>
<text xml:space="preserve" text-anchor="middle" x="171.09" y="-536.08" font-family="Times New Roman,serif" font-size="14.00">q25</text>
</g>
<!-- q0&#45;&gt;q25 -->
<g id="edge16" class="edge">
<title>q0&#45;&gt;q25</title>
<path fill="none" stroke="black" d="M85.98,-580.68C93.84,-574.98 103.41,-568.53 112.6,-563.63 120.14,-559.61 128.57,-555.91 136.59,-552.73"/>
<polygon fill="black" stroke="black" points="137.64,-556.07 145.74,-549.25 135.15,-549.53 137.64,-556.07"/>
<text xml:space="preserve" text-anchor="middle" x="120.47" y="-566.83" font-family="Times New Roman,serif" font-size="14.00">&#39;c&#39;</text>
</g>
<!-- q32 -->
<g id="node35" class="node">
<title>q32</title>
<ellipse fill="none" stroke="black" cx="171.09" cy="-474.13" rx="24.74" ry="24.74"/>
<text xml:space="preserve" text-anchor="middle" x="171.09" y="-469.08" font-family="Times New Roman,serif" font-size="14.00">q32</text>
</g>
<!-- q0&#45;&gt;q32 -->
<g id="edge54" class="edge">
<title>q0&#45;&gt;q32</title>
<path fill="none" stroke="black" d="M80.1,-577.88C88.73,-565.94 101,-549.45 112.6,-535.63 122.83,-523.44 134.76,-510.49 145.09,-499.64"/>
<polygon fill="black" stroke="black" points="147.52,-502.17 151.92,-492.53 142.47,-497.32 147.52,-502.17"/>
<text xml:space="preserve" text-anchor="middle" x="120.47" y="-538.83" font-family="Times New Roman,serif" font-size="14.00">&#39;r&#39;</text>
</g>
<!-- q35 -->
<g id="node38" class="node">
<title>q35</title>
<ellipse fill="none" stroke="black" cx="638.49" cy="-392.13" rx="24.74" ry="24.74"/>
<text xml:space="preserve" text-anchor="middle" x="638.49" y="-387.08" font-family="Times New Roman,serif" font-size="14.00">q35</text>
</g>
<!-- q0&#45;&gt;q35 -->
<g id="edge69" class="edge">
<title>q0&#45;&gt;q35</title>
<path fill="none" stroke="black" d="M69.59,-575.69C73.28,-526.9 90.58,-398.13 170.09,-398.13 170.09,-398.13 170.09,-398.13 440.77,-398.13 497.28,-398.13 562.88,-395.63 602.24,-393.85"/>
<polygon fill="black" stroke="black" points="602.23,-397.36 612.06,-393.4 601.91,-390.37 602.23,-397.36"/>
<text xml:space="preserve" text-anchor="middle" x="304.82" y="-401.33" font-family="Times New Roman,serif" font-size="14.00">&#39;w&#39;</text>
</g>
<!-- q42 -->
<g id="node45" class="node">
<title>q42</title>
<ellipse fill="none" stroke="black" cx="638.49" cy="-266.13" rx="24.74" ry="24.74"/>
<text xml:space="preserve" text-anchor="middle" x="638.49" y="-261.08" font-family="Times New Roman,serif" font-size="14.00">q42</text>
</g>
<!-- q0&#45;&gt;q42 -->
<g id="edge34" class="edge">
<title>q0&#45;&gt;q42</title>
<path fill="none" stroke="black" d="M70.77,-576C79.01,-511.52 110.83,-297.13 170.09,-297.13 170.09,-297.13 170.09,-297.13 440.77,-297.13 498.23,-297.13 564,-284.06 603.06,-274.9"/>
<polygon fill="black" stroke="black" points="603.68,-278.35 612.58,-272.61 602.04,-271.54 603.68,-278.35"/>
<text xml:space="preserve" text-anchor="middle" x="304.82" y="-300.33" font-family="Times New Roman,serif" font-size="14.00">&#39;i&#39;</text>
</g>
<!-- q46 -->
<g id="node49" class="node">
<title>q46</title>
<ellipse fill="none" stroke="black" cx="171.09" cy="-203.13" rx="24.74" ry="24.74"/>
<text xml:space="preserve" text-anchor="middle" x="171.09" y="-198.08" font-family="Times New Roman,serif" font-size="14.00">q46</text>
</g>
<!-- q0&#45;&gt;q46 -->
<g id="edge44" class="edge">
<title>q0&#45;&gt;q46</title>
<path fill="none" stroke="black" d="M69.63,-575.93C73.25,-515.55 86.63,-322.57 112.6,-266.63 119.69,-251.37 131.74,-237.19 142.98,-226.12"/>
<polygon fill="black" stroke="black" points="145.33,-228.73 150.23,-219.33 140.54,-223.62 145.33,-228.73"/>
<text xml:space="preserve" text-anchor="middle" x="120.47" y="-269.83" font-family="Times New Roman,serif" font-size="14.00">&#39;m&#39;</text>
</g>
<!-- q48 -->
<g id="node51" class="node">
<title>q48</title>
<ellipse fill="none" stroke="black" cx="372.3" cy="-118.13" rx="24.74" ry="24.74"/>
<text xml:space="preserve" text-anchor="middle" x="372.3" y="-113.08" font-family="Times New Roman,serif" font-size="14.00">q48</text>
</g>
<!-- q0&#45;&gt;q48 -->
<g id="edge40" class="edge">
<title>q0&#45;&gt;q48</title>
<path fill="none" stroke="black" d="M68.78,-575.7C69.97,-498.99 78.93,-206.65 146.35,-152.63 201.07,-108.79 288.02,-109.15 336.22,-113.5"/>
<polygon fill="black" stroke="black" points="335.79,-116.97 346.09,-114.51 336.5,-110.01 335.79,-116.97"/>
<text xml:space="preserve" text-anchor="middle" x="171.09" y="-155.83" font-family="Times New Roman,serif" font-size="14.00">&#39;l&#39;</text>
</g>
<!-- q49 -->
<g id="node52" class="node">
<title>q49</title>
<ellipse fill="none" stroke="black" cx="769.72" cy="-71.13" rx="24.74" ry="24.74"/>
<text xml:space="preserve" text-anchor="middle" x="769.72" y="-66.08" font-family="Times New Roman,serif" font-size="14.00">q49</text>
</g>
<!-- q0&#45;&gt;q49 -->
<g id="edge30" class="edge">
<title>q0&#45;&gt;q49</title>
<path fill="none" stroke="black" d="M68.19,-575.89C66.6,-483.68 65.38,-73.13 170.09,-73.13 170.09,-73.13 170.09,-73.13 508.25,-73.13 588.67,-73.13 683.06,-72.17 733.2,-71.58"/>
<polygon fill="black" stroke="black" points="733.19,-75.08 743.15,-71.46 733.11,-68.08 733.19,-75.08"/>
<text xml:space="preserve" text-anchor="middle" x="304.82" y="-76.33" font-family="Times New Roman,serif" font-size="14.00">&#39;g&#39;</text>
</g>
<!-- q3&#45;&gt;q50 -->
<g id="edge8" class="edge">
<title>q3&#45;&gt;q50</title>
<path fill="none" stroke="black" d="M262.38,-1031.98C288.83,-1032.87 333.15,-1034.13 371.3,-1034.13 371.3,-1034.13 371.3,-1034.13 1108.1,-1034.13 1135.96,-1034.13 1147.44,-1026.52 1162.58,-1003.13 1186.09,-966.83 1201.59,-674.75 1206.58,-566.39"/>
<polygon fill="black" stroke="black" points="1210.07,-566.66 1207.03,-556.52 1203.08,-566.35 1210.07,-566.66"/>
<text xml:space="preserve" text-anchor="middle" x="769.72" y="-1037.33" font-family="Times New Roman,serif" font-size="14.00">&#39;=&#39;</text>
</g>
<!-- q1 -->
<g id="node5" class="node">
<title>q1</title>
<ellipse fill="none" stroke="black" cx="1107.1" cy="-20.13" rx="20.13" ry="20.13"/>
<text xml:space="preserve" text-anchor="middle" x="1107.1" y="-15.08" font-family="Times New Roman,serif" font-size="14.00">q1</text>
</g>
<!-- q1&#45;&gt;q50 -->
<g id="edge9" class="edge">
<title>q1&#45;&gt;q50</title>
<path fill="none" stroke="black" d="M1127.48,-21.16C1139.49,-22.88 1154.19,-27.17 1162.58,-37.63 1190.41,-72.27 1203.26,-374.94 1207.06,-485.73"/>
<polygon fill="black" stroke="black" points="1203.56,-485.66 1207.39,-495.54 1210.55,-485.43 1203.56,-485.66"/>
<text xml:space="preserve" text-anchor="middle" x="1156.21" y="-40.83" font-family="Times New Roman,serif" font-size="14.00">&#39;&gt;&#39;</text>
</g>
<!-- q2&#45;&gt;q50 -->
<g id="edge7" class="edge">
<title>q2&#45;&gt;q50</title>
<path fill="none" stroke="black" d="M527.59,-943.72C584.94,-945.4 759.14,-950.13 903.67,-950.13 903.67,-950.13 903.67,-950.13 1108.1,-950.13 1135.96,-950.13 1147.21,-942.36 1162.58,-919.13 1200.42,-861.97 1207.06,-655.08 1208.15,-566.66"/>
<polygon fill="black" stroke="black" points="1211.65,-566.79 1208.25,-556.76 1204.65,-566.72 1211.65,-566.79"/>
<text xml:space="preserve" text-anchor="middle" x="904.67" y="-953.33" font-family="Times New Roman,serif" font-size="14.00">&#39;=&#39;</text>
</g>
<!-- q5 -->
<g id="node8" class="node">
<title>q5</title>
<ellipse fill="none" stroke="black" cx="372.3" cy="-902.13" rx="20.13" ry="20.13"/>
<text xml:space="preserve" text-anchor="middle" x="372.3" y="-897.08" font-family="Times New Roman,serif" font-size="14.00">q5</text>
</g>
<!-- q4&#45;&gt;q5 -->
<g id="edge17" class="edge">
<title>q4&#45;&gt;q5</title>
<path fill="none" stroke="black" d="M191.55,-889.5C226.21,-891.93 298.89,-897.04 340.43,-899.96"/>
<polygon fill="black" stroke="black" points="340.03,-903.44 350.25,-900.65 340.52,-896.46 340.03,-903.44"/>
<text xml:space="preserve" text-anchor="middle" x="237.96" y="-897.43" font-family="Times New Roman,serif" font-size="14.00">&#39;d&#39;</text>
</g>
<!-- q5&#45;&gt;q50 -->
<g id="edge18" class="edge">
<title>q5&#45;&gt;q50</title>
<path fill="none" stroke="black" d="M392.67,-902.84C418.55,-903.73 465.85,-905.13 506.25,-905.13 506.25,-905.13 506.25,-905.13 1108.1,-905.13 1177.52,-905.13 1199.94,-664.48 1206.19,-566.7"/>
<polygon fill="black" stroke="black" points="1209.68,-566.95 1206.8,-556.75 1202.69,-566.52 1209.68,-566.95"/>
<text xml:space="preserve" text-anchor="middle" x="837.2" y="-908.33" font-family="Times New Roman,serif" font-size="14.00">&#39;d&#39;</text>
</g>
<!-- q7 -->
<g id="node10" class="node">
<title>q7</title>
<ellipse fill="none" stroke="black" cx="304.82" cy="-840.13" rx="20.13" ry="20.13"/>
<text xml:space="preserve" text-anchor="middle" x="304.82" y="-835.08" font-family="Times New Roman,serif" font-size="14.00">q7</text>
</g>
<!-- q6&#45;&gt;q7 -->
<g id="edge55" class="edge">
<title>q6&#45;&gt;q7</title>
<path fill="none" stroke="black" d="M191.24,-817.91C212.8,-822.17 248.13,-829.14 273.46,-834.14"/>
<polygon fill="black" stroke="black" points="272.67,-837.55 283.16,-836.05 274.03,-830.68 272.67,-837.55"/>
<text xml:space="preserve" text-anchor="middle" x="237.96" y="-834.92" font-family="Times New Roman,serif" font-size="14.00">&#39;r&#39;</text>
</g>
<!-- q8 -->
<g id="node11" class="node">
<title>q8</title>
<ellipse fill="none" stroke="black" cx="439.77" cy="-841.13" rx="20.13" ry="20.13"/>
<text xml:space="preserve" text-anchor="middle" x="439.77" y="-836.08" font-family="Times New Roman,serif" font-size="14.00">q8</text>
</g>
<!-- q7&#45;&gt;q8 -->
<g id="edge51" class="edge">
<title>q7&#45;&gt;q8</title>
<path fill="none" stroke="black" d="M325.44,-840.28C347.27,-840.44 382.8,-840.71 408.26,-840.9"/>
<polygon fill="black" stroke="black" points="407.97,-844.4 418,-840.97 408.02,-837.4 407.97,-844.4"/>
<text xml:space="preserve" text-anchor="middle" x="372.3" y="-844.01" font-family="Times New Roman,serif" font-size="14.00">&#39;o&#39;</text>
</g>
<!-- q9 -->
<g id="node12" class="node">
<title>q9</title>
<ellipse fill="none" stroke="black" cx="638.49" cy="-842.13" rx="20.13" ry="20.13"/>
<text xml:space="preserve" text-anchor="middle" x="638.49" y="-837.08" font-family="Times New Roman,serif" font-size="14.00">q9</text>
</g>
<!-- q8&#45;&gt;q9 -->
<g id="edge31" class="edge">
<title>q8&#45;&gt;q9</title>
<path fill="none" stroke="black" d="M460.35,-841.23C494.6,-841.4 565.61,-841.77 606.56,-841.97"/>
<polygon fill="black" stroke="black" points="606.45,-845.47 616.47,-842.02 606.49,-838.47 606.45,-845.47"/>
<text xml:space="preserve" text-anchor="middle" x="507.25" y="-844.77" font-family="Times New Roman,serif" font-size="14.00">&#39;g&#39;</text>
</g>
<!-- q10 -->
<g id="node13" class="node">
<title>q10</title>
<ellipse fill="none" stroke="black" cx="837.2" cy="-844.13" rx="24.74" ry="24.74"/>
<text xml:space="preserve" text-anchor="middle" x="837.2" y="-839.08" font-family="Times New Roman,serif" font-size="14.00">q10</text>
</g>
<!-- q9&#45;&gt;q10 -->
<g id="edge56" class="edge">
<title>q9&#45;&gt;q10</title>
<path fill="none" stroke="black" d="M659.07,-842.33C692.06,-842.67 759.18,-843.35 800.66,-843.77"/>
<polygon fill="black" stroke="black" points="800.59,-847.27 810.62,-843.87 800.66,-840.27 800.59,-847.27"/>
<text xml:space="preserve" text-anchor="middle" x="769.72" y="-846.9" font-family="Times New Roman,serif" font-size="14.00">&#39;r&#39;</text>
</g>
<!-- q11 -->
<g id="node14" class="node">
<title>q11</title>
<ellipse fill="none" stroke="black" cx="1039.62" cy="-856.13" rx="24.74" ry="24.74"/>
<text xml:space="preserve" text-anchor="middle" x="1039.62" y="-851.08" font-family="Times New Roman,serif" font-size="14.00">q11</text>
</g>
<!-- q10&#45;&gt;q11 -->
<g id="edge11" class="edge">
<title>q10&#45;&gt;q11</title>
<path fill="none" stroke="black" d="M862.37,-845.58C897.45,-847.68 962.69,-851.59 1003.2,-854.01"/>
<polygon fill="black" stroke="black" points="1002.97,-857.5 1013.16,-854.61 1003.39,-850.52 1002.97,-857.5"/>
<text xml:space="preserve" text-anchor="middle" x="904.67" y="-852.56" font-family="Times New Roman,serif" font-size="14.00">&#39;a&#39;</text>
</g>
<!-- q11&#45;&gt;q50 -->
<g id="edge45" class="edge">
<title>q11&#45;&gt;q50</title>
<path fill="none" stroke="black" d="M1064.09,-850.64C1083.88,-845.08 1112.07,-834.87 1131.83,-818.13 1151.46,-801.52 1153.21,-793.07 1162.58,-769.13 1189.26,-701 1200.69,-615.87 1205.35,-566.58"/>
<polygon fill="black" stroke="black" points="1208.83,-566.93 1206.24,-556.66 1201.86,-566.31 1208.83,-566.93"/>
<text xml:space="preserve" text-anchor="middle" x="1107.1" y="-847.59" font-family="Times New Roman,serif" font-size="14.00">&#39;m&#39;</text>
</g>
<!-- q13 -->
<g id="node16" class="node">
<title>q13</title>
<ellipse fill="none" stroke="black" cx="1039.62" cy="-798.13" rx="24.74" ry="24.74"/>
<text xml:space="preserve" text-anchor="middle" x="1039.62" y="-793.08" font-family="Times New Roman,serif" font-size="14.00">q13</text>
</g>
<!-- q12&#45;&gt;q13 -->
<g id="edge12" class="edge">
<title>q12&#45;&gt;q13</title>
<path fill="none" stroke="black" d="M192.03,-751.04C216.98,-767.04 261.56,-791.13 303.82,-791.13 303.82,-791.13 303.82,-791.13 905.67,-791.13 938.75,-791.13 976.38,-793.32 1003.15,-795.25"/>
<polygon fill="black" stroke="black" points="1002.88,-798.74 1013.12,-795.99 1003.4,-791.76 1002.88,-798.74"/>
<text xml:space="preserve" text-anchor="middle" x="507.25" y="-794.33" font-family="Times New Roman,serif" font-size="14.00">&#39;a&#39;</text>
</g>
<!-- q13&#45;&gt;q50 -->
<g id="edge57" class="edge">
<title>q13&#45;&gt;q50</title>
<path fill="none" stroke="black" d="M1064.49,-799.25C1084.54,-798.94 1112.86,-795.43 1131.83,-780.13 1196.41,-728.08 1207.98,-623.56 1209.17,-566.15"/>
<polygon fill="black" stroke="black" points="1212.66,-566.54 1209.26,-556.51 1205.66,-566.47 1212.66,-566.54"/>
<text xml:space="preserve" text-anchor="middle" x="1107.1" y="-801.3" font-family="Times New Roman,serif" font-size="14.00">&#39;r&#39;</text>
</g>
<!-- q15 -->
<g id="node18" class="node">
<title>q15</title>
<ellipse fill="none" stroke="black" cx="837.2" cy="-738.13" rx="24.74" ry="24.74"/>
<text xml:space="preserve" text-anchor="middle" x="837.2" y="-733.08" font-family="Times New Roman,serif" font-size="14.00">q15</text>
</g>
<!-- q14&#45;&gt;q15 -->
<g id="edge22" class="edge">
<title>q14&#45;&gt;q15</title>
<path fill="none" stroke="black" d="M662.44,-678.95C697.01,-690.72 762.65,-713.08 802.61,-726.69"/>
<polygon fill="black" stroke="black" points="801.37,-729.96 811.96,-729.88 803.62,-723.34 801.37,-729.96"/>
<text xml:space="preserve" text-anchor="middle" x="769.72" y="-726.86" font-family="Times New Roman,serif" font-size="14.00">&#39;e&#39;</text>
</g>
<!-- q18 -->
<g id="node21" class="node">
<title>q18</title>
<ellipse fill="none" stroke="black" cx="837.2" cy="-671.13" rx="24.74" ry="24.74"/>
<text xml:space="preserve" text-anchor="middle" x="837.2" y="-666.08" font-family="Times New Roman,serif" font-size="14.00">q18</text>
</g>
<!-- q14&#45;&gt;q18 -->
<g id="edge58" class="edge">
<title>q14&#45;&gt;q18</title>
<path fill="none" stroke="black" d="M663.61,-671.13C697.91,-671.13 761.03,-671.13 800.69,-671.13"/>
<polygon fill="black" stroke="black" points="800.67,-674.63 810.67,-671.13 800.67,-667.63 800.67,-674.63"/>
<text xml:space="preserve" text-anchor="middle" x="769.72" y="-674.33" font-family="Times New Roman,serif" font-size="14.00">&#39;r&#39;</text>
</g>
<!-- q16 -->
<g id="node19" class="node">
<title>q16</title>
<ellipse fill="none" stroke="black" cx="972.15" cy="-738.13" rx="24.74" ry="24.74"/>
<text xml:space="preserve" text-anchor="middle" x="972.15" y="-733.08" font-family="Times New Roman,serif" font-size="14.00">q16</text>
</g>
<!-- q15&#45;&gt;q16 -->
<g id="edge32" class="edge">
<title>q15&#45;&gt;q16</title>
<path fill="none" stroke="black" d="M862.27,-738.13C882.79,-738.13 912.56,-738.13 935.79,-738.13"/>
<polygon fill="black" stroke="black" points="935.74,-741.63 945.74,-738.13 935.74,-734.63 935.74,-741.63"/>
<text xml:space="preserve" text-anchor="middle" x="904.67" y="-741.33" font-family="Times New Roman,serif" font-size="14.00">&#39;g&#39;</text>
</g>
<!-- q17 -->
<g id="node20" class="node">
<title>q17</title>
<ellipse fill="none" stroke="black" cx="1107.1" cy="-746.13" rx="24.74" ry="24.74"/>
<text xml:space="preserve" text-anchor="middle" x="1107.1" y="-741.08" font-family="Times New Roman,serif" font-size="14.00">q17</text>
</g>
<!-- q16&#45;&gt;q17 -->
<g id="edge35" class="edge">
<title>q16&#45;&gt;q17</title>
<path fill="none" stroke="black" d="M997.22,-739.58C1017.74,-740.81 1047.51,-742.61 1070.74,-744"/>
<polygon fill="black" stroke="black" points="1070.5,-747.5 1080.69,-744.6 1070.92,-740.51 1070.5,-747.5"/>
<text xml:space="preserve" text-anchor="middle" x="1039.62" y="-746.74" font-family="Times New Roman,serif" font-size="14.00">&#39;i&#39;</text>
</g>
<!-- q17&#45;&gt;q50 -->
<g id="edge46" class="edge">
<title>q17&#45;&gt;q50</title>
<path fill="none" stroke="black" d="M1122.52,-726.32C1125.62,-721.99 1128.86,-717.42 1131.83,-713.13 1145.85,-692.92 1151.86,-689.26 1162.58,-667.13 1178.59,-634.12 1190.96,-594.14 1198.77,-565.2"/>
<polygon fill="black" stroke="black" points="1202.09,-566.32 1201.25,-555.76 1195.32,-564.54 1202.09,-566.32"/>
<text xml:space="preserve" text-anchor="middle" x="1156.21" y="-691.8" font-family="Times New Roman,serif" font-size="14.00">&#39;n&#39;</text>
</g>
<!-- q19 -->
<g id="node22" class="node">
<title>q19</title>
<ellipse fill="none" stroke="black" cx="972.15" cy="-671.13" rx="24.74" ry="24.74"/>
<text xml:space="preserve" text-anchor="middle" x="972.15" y="-666.08" font-family="Times New Roman,serif" font-size="14.00">q19</text>
</g>
<!-- q18&#45;&gt;q19 -->
<g id="edge23" class="edge">
<title>q18&#45;&gt;q19</title>
<path fill="none" stroke="black" d="M862.27,-671.13C882.79,-671.13 912.56,-671.13 935.79,-671.13"/>
<polygon fill="black" stroke="black" points="935.74,-674.63 945.74,-671.13 935.74,-667.63 935.74,-674.63"/>
<text xml:space="preserve" text-anchor="middle" x="904.67" y="-674.33" font-family="Times New Roman,serif" font-size="14.00">&#39;e&#39;</text>
</g>
<!-- q20 -->
<g id="node23" class="node">
<title>q20</title>
<ellipse fill="none" stroke="black" cx="1107.1" cy="-679.13" rx="24.74" ry="24.74"/>
<text xml:space="preserve" text-anchor="middle" x="1107.1" y="-674.08" font-family="Times New Roman,serif" font-size="14.00">q20</text>
</g>
<!-- q19&#45;&gt;q20 -->
<g id="edge13" class="edge">
<title>q19&#45;&gt;q20</title>
<path fill="none" stroke="black" d="M997.22,-672.58C1017.74,-673.81 1047.51,-675.61 1070.74,-677"/>
<polygon fill="black" stroke="black" points="1070.5,-680.5 1080.69,-677.6 1070.92,-673.51 1070.5,-680.5"/>
<text xml:space="preserve" text-anchor="middle" x="1039.62" y="-679.74" font-family="Times New Roman,serif" font-size="14.00">&#39;a&#39;</text>
</g>
<!-- q20&#45;&gt;q50 -->
<g id="edge39" class="edge">
<title>q20&#45;&gt;q50</title>
<path fill="none" stroke="black" d="M1128.57,-665.88C1139.79,-657.8 1153.27,-646.62 1162.58,-634.13 1178.13,-613.28 1189.55,-586.35 1197.09,-564.59"/>
<polygon fill="black" stroke="black" points="1200.38,-565.78 1200.2,-555.19 1193.74,-563.58 1200.38,-565.78"/>
<text xml:space="preserve" text-anchor="middle" x="1156.21" y="-650.32" font-family="Times New Roman,serif" font-size="14.00">&#39;k&#39;</text>
</g>
<!-- q22 -->
<g id="node25" class="node">
<title>q22</title>
<ellipse fill="none" stroke="black" cx="1039.62" cy="-619.13" rx="24.74" ry="24.74"/>
<text xml:space="preserve" text-anchor="middle" x="1039.62" y="-614.08" font-family="Times New Roman,serif" font-size="14.00">q22</text>
</g>
<!-- q21&#45;&gt;q22 -->
<g id="edge47" class="edge">
<title>q21&#45;&gt;q22</title>
<path fill="none" stroke="black" d="M861.98,-597.1C897.08,-601.48 963.01,-609.7 1003.64,-614.77"/>
<polygon fill="black" stroke="black" points="1003.02,-618.22 1013.37,-615.98 1003.88,-611.27 1003.02,-618.22"/>
<text xml:space="preserve" text-anchor="middle" x="904.67" y="-608.23" font-family="Times New Roman,serif" font-size="14.00">&#39;n&#39;</text>
</g>
<!-- q23 -->
<g id="node26" class="node">
<title>q23</title>
<ellipse fill="none" stroke="black" cx="972.15" cy="-565.13" rx="24.74" ry="24.74"/>
<text xml:space="preserve" text-anchor="middle" x="972.15" y="-560.08" font-family="Times New Roman,serif" font-size="14.00">q23</text>
</g>
<!-- q21&#45;&gt;q23 -->
<g id="edge41" class="edge">
<title>q21&#45;&gt;q23</title>
<path fill="none" stroke="black" d="M860.51,-585.57C866.73,-583.4 873.54,-581.24 879.94,-579.63 898.26,-575.03 919.03,-571.59 936.12,-569.22"/>
<polygon fill="black" stroke="black" points="936.33,-572.73 945.79,-567.95 935.42,-565.79 936.33,-572.73"/>
<text xml:space="preserve" text-anchor="middle" x="904.67" y="-582.83" font-family="Times New Roman,serif" font-size="14.00">&#39;l&#39;</text>
</g>
<!-- q22&#45;&gt;q50 -->
<g id="edge19" class="edge">
<title>q22&#45;&gt;q50</title>
<path fill="none" stroke="black" d="M1064.2,-615.37C1083.29,-611.65 1110.43,-604.78 1131.83,-593.13 1150.07,-583.21 1167.69,-568.26 1181.41,-555"/>
<polygon fill="black" stroke="black" points="1183.74,-557.63 1188.35,-548.09 1178.8,-552.67 1183.74,-557.63"/>
<text xml:space="preserve" text-anchor="middle" x="1107.1" y="-614.19" font-family="Times New Roman,serif" font-size="14.00">&#39;d&#39;</text>
</g>
<!-- q24 -->
<g id="node27" class="node">
<title>q24</title>
<ellipse fill="none" stroke="black" cx="1107.1" cy="-559.13" rx="24.74" ry="24.74"/>
<text xml:space="preserve" text-anchor="middle" x="1107.1" y="-554.08" font-family="Times New Roman,serif" font-size="14.00">q24</text>
</g>
<!-- q23&#45;&gt;q24 -->
<g id="edge60" class="edge">
<title>q23&#45;&gt;q24</title>
<path fill="none" stroke="black" d="M997.22,-564.04C1017.74,-563.12 1047.51,-561.78 1070.74,-560.73"/>
<polygon fill="black" stroke="black" points="1070.86,-564.23 1080.69,-560.28 1070.54,-557.23 1070.86,-564.23"/>
<text xml:space="preserve" text-anchor="middle" x="1039.62" y="-566.39" font-family="Times New Roman,serif" font-size="14.00">&#39;s&#39;</text>
</g>
<!-- q24&#45;&gt;q50 -->
<g id="edge24" class="edge">
<title>q24&#45;&gt;q50</title>
<path fill="none" stroke="black" d="M1130.84,-551.64C1142.66,-547.75 1157.41,-542.89 1170.87,-538.46"/>
<polygon fill="black" stroke="black" points="1171.92,-541.8 1180.33,-535.35 1169.74,-535.15 1171.92,-541.8"/>
<text xml:space="preserve" text-anchor="middle" x="1156.21" y="-547.81" font-family="Times New Roman,serif" font-size="14.00">&#39;e&#39;</text>
</g>
<!-- q26 -->
<g id="node29" class="node">
<title>q26</title>
<ellipse fill="none" stroke="black" cx="304.82" cy="-539.13" rx="24.74" ry="24.74"/>
<text xml:space="preserve" text-anchor="middle" x="304.82" y="-534.08" font-family="Times New Roman,serif" font-size="14.00">q26</text>
</g>
<!-- q25&#45;&gt;q26 -->
<g id="edge52" class="edge">
<title>q25&#45;&gt;q26</title>
<path fill="none" stroke="black" d="M196.25,-540.76C216.49,-540.46 245.66,-540.01 268.52,-539.67"/>
<polygon fill="black" stroke="black" points="268.36,-543.17 278.3,-539.52 268.25,-536.17 268.36,-543.17"/>
<text xml:space="preserve" text-anchor="middle" x="237.96" y="-543.68" font-family="Times New Roman,serif" font-size="14.00">&#39;o&#39;</text>
</g>
<!-- q27 -->
<g id="node30" class="node">
<title>q27</title>
<ellipse fill="none" stroke="black" cx="439.77" cy="-537.13" rx="24.74" ry="24.74"/>
<text xml:space="preserve" text-anchor="middle" x="439.77" y="-532.08" font-family="Times New Roman,serif" font-size="14.00">q27</text>
</g>
<!-- q26&#45;&gt;q27 -->
<g id="edge48" class="edge">
<title>q26&#45;&gt;q27</title>
<path fill="none" stroke="black" d="M329.9,-538.77C350.42,-538.46 380.19,-538.01 403.41,-537.66"/>
<polygon fill="black" stroke="black" points="403.42,-541.16 413.36,-537.51 403.31,-534.16 403.42,-541.16"/>
<text xml:space="preserve" text-anchor="middle" x="372.3" y="-541.68" font-family="Times New Roman,serif" font-size="14.00">&#39;n&#39;</text>
</g>
<!-- q28 -->
<g id="node31" class="node">
<title>q28</title>
<ellipse fill="none" stroke="black" cx="638.49" cy="-525.13" rx="24.74" ry="24.74"/>
<text xml:space="preserve" text-anchor="middle" x="638.49" y="-520.08" font-family="Times New Roman,serif" font-size="14.00">q28</text>
</g>
<!-- q27&#45;&gt;q28 -->
<g id="edge61" class="edge">
<title>q27&#45;&gt;q28</title>
<path fill="none" stroke="black" d="M464.89,-535.66C499.28,-533.56 562.59,-529.7 602.24,-527.28"/>
<polygon fill="black" stroke="black" points="602.2,-530.79 611.97,-526.69 601.77,-523.8 602.2,-530.79"/>
<text xml:space="preserve" text-anchor="middle" x="507.25" y="-537.74" font-family="Times New Roman,serif" font-size="14.00">&#39;t&#39;</text>
</g>
<!-- q29 -->
<g id="node32" class="node">
<title>q29</title>
<ellipse fill="none" stroke="black" cx="837.2" cy="-508.13" rx="24.74" ry="24.74"/>
<text xml:space="preserve" text-anchor="middle" x="837.2" y="-503.08" font-family="Times New Roman,serif" font-size="14.00">q29</text>
</g>
<!-- q28&#45;&gt;q29 -->
<g id="edge36" class="edge">
<title>q28&#45;&gt;q29</title>
<path fill="none" stroke="black" d="M663.61,-523.05C697.99,-520.08 761.3,-514.6 800.95,-511.18"/>
<polygon fill="black" stroke="black" points="801.02,-514.68 810.68,-510.34 800.42,-507.71 801.02,-514.68"/>
<text xml:space="preserve" text-anchor="middle" x="769.72" y="-518.81" font-family="Times New Roman,serif" font-size="14.00">&#39;i&#39;</text>
</g>
<!-- q30 -->
<g id="node33" class="node">
<title>q30</title>
<ellipse fill="none" stroke="black" cx="972.15" cy="-498.13" rx="24.74" ry="24.74"/>
<text xml:space="preserve" text-anchor="middle" x="972.15" y="-493.08" font-family="Times New Roman,serif" font-size="14.00">q30</text>
</g>
<!-- q29&#45;&gt;q30 -->
<g id="edge49" class="edge">
<title>q29&#45;&gt;q30</title>
<path fill="none" stroke="black" d="M862.27,-506.32C882.79,-504.78 912.56,-502.54 935.79,-500.79"/>
<polygon fill="black" stroke="black" points="936.03,-504.28 945.74,-500.04 935.51,-497.3 936.03,-504.28"/>
<text xml:space="preserve" text-anchor="middle" x="904.67" y="-508.1" font-family="Times New Roman,serif" font-size="14.00">&#39;n&#39;</text>
</g>
<!-- q31 -->
<g id="node34" class="node">
<title>q31</title>
<ellipse fill="none" stroke="black" cx="1107.1" cy="-492.13" rx="24.74" ry="24.74"/>
<text xml:space="preserve" text-anchor="middle" x="1107.1" y="-487.08" font-family="Times New Roman,serif" font-size="14.00">q31</text>
</g>
<!-- q30&#45;&gt;q31 -->
<g id="edge66" class="edge">
<title>q30&#45;&gt;q31</title>
<path fill="none" stroke="black" d="M997.22,-497.04C1017.74,-496.12 1047.51,-494.78 1070.74,-493.73"/>
<polygon fill="black" stroke="black" points="1070.86,-497.23 1080.69,-493.28 1070.54,-490.23 1070.86,-497.23"/>
<text xml:space="preserve" text-anchor="middle" x="1039.62" y="-499.39" font-family="Times New Roman,serif" font-size="14.00">&#39;u&#39;</text>
</g>
<!-- q31&#45;&gt;q50 -->
<g id="edge25" class="edge">
<title>q31&#45;&gt;q50</title>
<path fill="none" stroke="black" d="M1130.84,-499.85C1142.66,-503.86 1157.41,-508.86 1170.87,-513.42"/>
<polygon fill="black" stroke="black" points="1169.74,-516.74 1180.33,-516.64 1171.99,-510.11 1169.74,-516.74"/>
<text xml:space="preserve" text-anchor="middle" x="1156.21" y="-513.35" font-family="Times New Roman,serif" font-size="14.00">&#39;e&#39;</text>
</g>
<!-- q33 -->
<g id="node36" class="node">
<title>q33</title>
<ellipse fill="none" stroke="black" cx="304.82" cy="-467.13" rx="24.74" ry="24.74"/>
<text xml:space="preserve" text-anchor="middle" x="304.82" y="-462.08" font-family="Times New Roman,serif" font-size="14.00">q33</text>
</g>
<!-- q32&#45;&gt;q33 -->
<g id="edge26" class="edge">
<title>q32&#45;&gt;q33</title>
<path fill="none" stroke="black" d="M196.25,-472.85C216.49,-471.77 245.66,-470.22 268.52,-469.01"/>
<polygon fill="black" stroke="black" points="268.5,-472.51 278.3,-468.49 268.13,-465.52 268.5,-472.51"/>
<text xml:space="preserve" text-anchor="middle" x="237.96" y="-475.07" font-family="Times New Roman,serif" font-size="14.00">&#39;e&#39;</text>
</g>
<!-- q34 -->
<g id="node37" class="node">
<title>q34</title>
<ellipse fill="none" stroke="black" cx="507.25" cy="-453.13" rx="24.74" ry="24.74"/>
<text xml:space="preserve" text-anchor="middle" x="507.25" y="-448.08" font-family="Times New Roman,serif" font-size="14.00">q34</text>
</g>
<!-- q33&#45;&gt;q34 -->
<g id="edge14" class="edge">
<title>q33&#45;&gt;q34</title>
<path fill="none" stroke="black" d="M330,-465.44C365.08,-462.99 430.32,-458.43 470.83,-455.61"/>
<polygon fill="black" stroke="black" points="471.06,-459.1 480.79,-454.91 470.57,-452.11 471.06,-459.1"/>
<text xml:space="preserve" text-anchor="middle" x="372.3" y="-467.31" font-family="Times New Roman,serif" font-size="14.00">&#39;a&#39;</text>
</g>
<!-- q34&#45;&gt;q50 -->
<g id="edge20" class="edge">
<title>q34&#45;&gt;q50</title>
<path fill="none" stroke="black" d="M532.39,-451.09C633.1,-442.91 1019.68,-414.97 1131.83,-458.13 1151.8,-465.81 1169.9,-481.31 1183.47,-495.56"/>
<polygon fill="black" stroke="black" points="1180.58,-497.59 1189.9,-502.63 1185.76,-492.88 1180.58,-497.59"/>
<text xml:space="preserve" text-anchor="middle" x="904.67" y="-438.08" font-family="Times New Roman,serif" font-size="14.00">&#39;d&#39;</text>
</g>
<!-- q36 -->
<g id="node39" class="node">
<title>q36</title>
<ellipse fill="none" stroke="black" cx="837.2" cy="-392.13" rx="24.74" ry="24.74"/>
<text xml:space="preserve" text-anchor="middle" x="837.2" y="-387.08" font-family="Times New Roman,serif" font-size="14.00">q36</text>
</g>
<!-- q35&#45;&gt;q36 -->
<g id="edge59" class="edge">
<title>q35&#45;&gt;q36</title>
<path fill="none" stroke="black" d="M663.61,-392.13C697.91,-392.13 761.03,-392.13 800.69,-392.13"/>
<polygon fill="black" stroke="black" points="800.67,-395.63 810.67,-392.13 800.67,-388.63 800.67,-395.63"/>
<text xml:space="preserve" text-anchor="middle" x="769.72" y="-395.33" font-family="Times New Roman,serif" font-size="14.00">&#39;r&#39;</text>
</g>
<!-- q39 -->
<g id="node42" class="node">
<title>q39</title>
<ellipse fill="none" stroke="black" cx="837.2" cy="-325.13" rx="24.74" ry="24.74"/>
<text xml:space="preserve" text-anchor="middle" x="837.2" y="-320.08" font-family="Times New Roman,serif" font-size="14.00">q39</text>
</g>
<!-- q35&#45;&gt;q39 -->
<g id="edge33" class="edge">
<title>q35&#45;&gt;q39</title>
<path fill="none" stroke="black" d="M662.44,-384.31C697.01,-372.54 762.65,-350.18 802.61,-336.57"/>
<polygon fill="black" stroke="black" points="803.62,-339.92 811.96,-333.39 801.37,-333.3 803.62,-339.92"/>
<text xml:space="preserve" text-anchor="middle" x="769.72" y="-357.82" font-family="Times New Roman,serif" font-size="14.00">&#39;h&#39;</text>
</g>
<!-- q37 -->
<g id="node40" class="node">
<title>q37</title>
<ellipse fill="none" stroke="black" cx="972.15" cy="-392.13" rx="24.74" ry="24.74"/>
<text xml:space="preserve" text-anchor="middle" x="972.15" y="-387.08" font-family="Times New Roman,serif" font-size="14.00">q37</text>
</g>
<!-- q36&#45;&gt;q37 -->
<g id="edge37" class="edge">
<title>q36&#45;&gt;q37</title>
<path fill="none" stroke="black" d="M862.27,-392.13C882.79,-392.13 912.56,-392.13 935.79,-392.13"/>
<polygon fill="black" stroke="black" points="935.74,-395.63 945.74,-392.13 935.74,-388.63 935.74,-395.63"/>
<text xml:space="preserve" text-anchor="middle" x="904.67" y="-395.33" font-family="Times New Roman,serif" font-size="14.00">&#39;i&#39;</text>
</g>
<!-- q38 -->
<g id="node41" class="node">
<title>q38</title>
<ellipse fill="none" stroke="black" cx="1107.1" cy="-386.13" rx="24.74" ry="24.74"/>
<text xml:space="preserve" text-anchor="middle" x="1107.1" y="-381.08" font-family="Times New Roman,serif" font-size="14.00">q38</text>
</g>
<!-- q37&#45;&gt;q38 -->
<g id="edge62" class="edge">
<title>q37&#45;&gt;q38</title>
<path fill="none" stroke="black" d="M997.22,-391.04C1017.74,-390.12 1047.51,-388.78 1070.74,-387.73"/>
<polygon fill="black" stroke="black" points="1070.86,-391.23 1080.69,-387.28 1070.54,-384.23 1070.86,-391.23"/>
<text xml:space="preserve" text-anchor="middle" x="1039.62" y="-393.39" font-family="Times New Roman,serif" font-size="14.00">&#39;t&#39;</text>
</g>
<!-- q38&#45;&gt;q50 -->
<g id="edge27" class="edge">
<title>q38&#45;&gt;q50</title>
<path fill="none" stroke="black" d="M1131.71,-391.35C1142.31,-394.74 1154.28,-400.15 1162.58,-408.63 1183.31,-429.78 1194.9,-461.39 1201.23,-486.5"/>
<polygon fill="black" stroke="black" points="1197.77,-487.09 1203.44,-496.04 1204.59,-485.51 1197.77,-487.09"/>
<text xml:space="preserve" text-anchor="middle" x="1156.21" y="-411.83" font-family="Times New Roman,serif" font-size="14.00">&#39;e&#39;</text>
</g>
<!-- q40 -->
<g id="node43" class="node">
<title>q40</title>
<ellipse fill="none" stroke="black" cx="972.15" cy="-325.13" rx="24.74" ry="24.74"/>
<text xml:space="preserve" text-anchor="middle" x="972.15" y="-320.08" font-family="Times New Roman,serif" font-size="14.00">q40</text>
</g>
<!-- q39&#45;&gt;q40 -->
<g id="edge38" class="edge">
<title>q39&#45;&gt;q40</title>
<path fill="none" stroke="black" d="M862.27,-325.13C882.79,-325.13 912.56,-325.13 935.79,-325.13"/>
<polygon fill="black" stroke="black" points="935.74,-328.63 945.74,-325.13 935.74,-321.63 935.74,-328.63"/>
<text xml:space="preserve" text-anchor="middle" x="904.67" y="-328.33" font-family="Times New Roman,serif" font-size="14.00">&#39;i&#39;</text>
</g>
<!-- q41 -->
<g id="node44" class="node">
<title>q41</title>
<ellipse fill="none" stroke="black" cx="1107.1" cy="-319.13" rx="24.74" ry="24.74"/>
<text xml:space="preserve" text-anchor="middle" x="1107.1" y="-314.08" font-family="Times New Roman,serif" font-size="14.00">q41</text>
</g>
<!-- q40&#45;&gt;q41 -->
<g id="edge42" class="edge">
<title>q40&#45;&gt;q41</title>
<path fill="none" stroke="black" d="M997.22,-324.04C1017.74,-323.12 1047.51,-321.78 1070.74,-320.73"/>
<polygon fill="black" stroke="black" points="1070.86,-324.23 1080.69,-320.28 1070.54,-317.23 1070.86,-324.23"/>
<text xml:space="preserve" text-anchor="middle" x="1039.62" y="-326.39" font-family="Times New Roman,serif" font-size="14.00">&#39;l&#39;</text>
</g>
<!-- q41&#45;&gt;q50 -->
<g id="edge28" class="edge">
<title>q41&#45;&gt;q50</title>
<path fill="none" stroke="black" d="M1126.54,-335.21C1138.32,-346.35 1153.1,-362.11 1162.58,-378.63 1182.05,-412.55 1194.18,-455.7 1201.02,-486.55"/>
<polygon fill="black" stroke="black" points="1197.58,-487.19 1203.07,-496.25 1204.43,-485.74 1197.58,-487.19"/>
<text xml:space="preserve" text-anchor="middle" x="1156.21" y="-381.83" font-family="Times New Roman,serif" font-size="14.00">&#39;e&#39;</text>
</g>
<!-- q42&#45;&gt;q50 -->
<g id="edge29" class="edge">
<title>q42&#45;&gt;q50</title>
<path fill="none" stroke="black" d="M663.71,-266.13C700.84,-266.13 774.04,-266.13 836.2,-266.13 836.2,-266.13 836.2,-266.13 1108.1,-266.13 1154.82,-266.13 1188.1,-414.16 1201.62,-486.83"/>
<polygon fill="black" stroke="black" points="1198.11,-487.11 1203.35,-496.32 1205,-485.86 1198.11,-487.11"/>
<text xml:space="preserve" text-anchor="middle" x="972.15" y="-269.33" font-family="Times New Roman,serif" font-size="14.00">&#39;f&#39;</text>
</g>
<!-- q43 -->
<g id="node46" class="node">
<title>q43</title>
<ellipse fill="none" stroke="black" cx="837.2" cy="-213.13" rx="24.74" ry="24.74"/>
<text xml:space="preserve" text-anchor="middle" x="837.2" y="-208.08" font-family="Times New Roman,serif" font-size="14.00">q43</text>
</g>
<!-- q42&#45;&gt;q43 -->
<g id="edge50" class="edge">
<title>q42&#45;&gt;q43</title>
<path fill="none" stroke="black" d="M662.46,-259.2C683.79,-252.84 716.44,-243.28 744.99,-235.63 763.68,-230.63 784.63,-225.43 801.74,-221.29"/>
<polygon fill="black" stroke="black" points="802.51,-224.7 811.42,-218.97 800.88,-217.9 802.51,-224.7"/>
<text xml:space="preserve" text-anchor="middle" x="769.72" y="-238.83" font-family="Times New Roman,serif" font-size="14.00">&#39;n&#39;</text>
</g>
<!-- q44 -->
<g id="node47" class="node">
<title>q44</title>
<ellipse fill="none" stroke="black" cx="972.15" cy="-205.13" rx="24.74" ry="24.74"/>
<text xml:space="preserve" text-anchor="middle" x="972.15" y="-200.08" font-family="Times New Roman,serif" font-size="14.00">q44</text>
</g>
<!-- q43&#45;&gt;q44 -->
<g id="edge63" class="edge">
<title>q43&#45;&gt;q44</title>
<path fill="none" stroke="black" d="M862.27,-211.68C882.79,-210.45 912.56,-208.66 935.79,-207.26"/>
<polygon fill="black" stroke="black" points="935.97,-210.75 945.74,-206.66 935.55,-203.77 935.97,-210.75"/>
<text xml:space="preserve" text-anchor="middle" x="904.67" y="-213.74" font-family="Times New Roman,serif" font-size="14.00">&#39;t&#39;</text>
</g>
<!-- q45 -->
<g id="node48" class="node">
<title>q45</title>
<ellipse fill="none" stroke="black" cx="1107.1" cy="-211.13" rx="24.74" ry="24.74"/>
<text xml:space="preserve" text-anchor="middle" x="1107.1" y="-206.08" font-family="Times New Roman,serif" font-size="14.00">q45</text>
</g>
<!-- q44&#45;&gt;q45 -->
<g id="edge5" class="edge">
<title>q44&#45;&gt;q45</title>
<path fill="none" stroke="black" d="M997.22,-206.22C1017.74,-207.14 1047.51,-208.49 1070.74,-209.54"/>
<polygon fill="black" stroke="black" points="1070.54,-213.03 1080.69,-209.98 1070.86,-206.04 1070.54,-213.03"/>
<text xml:space="preserve" text-anchor="middle" x="1039.62" y="-212.39" font-family="Times New Roman,serif" font-size="14.00">&#39;3&#39;</text>
</g>
<!-- q45&#45;&gt;q50 -->
<g id="edge4" class="edge">
<title>q45&#45;&gt;q50</title>
<path fill="none" stroke="black" d="M1131.77,-216.24C1142.79,-219.84 1155.09,-225.82 1162.58,-235.63 1192.02,-274.18 1202.96,-415.54 1206.64,-485.86"/>
<polygon fill="black" stroke="black" points="1203.14,-485.99 1207.13,-495.8 1210.13,-485.64 1203.14,-485.99"/>
<text xml:space="preserve" text-anchor="middle" x="1156.21" y="-238.83" font-family="Times New Roman,serif" font-size="14.00">&#39;2&#39;</text>
</g>
<!-- q47 -->
<g id="node50" class="node">
<title>q47</title>
<ellipse fill="none" stroke="black" cx="904.67" cy="-157.13" rx="24.74" ry="24.74"/>
<text xml:space="preserve" text-anchor="middle" x="904.67" y="-152.08" font-family="Times New Roman,serif" font-size="14.00">q47</text>
</g>
<!-- q46&#45;&gt;q47 -->
<g id="edge67" class="edge">
<title>q46&#45;&gt;q47</title>
<path fill="none" stroke="black" d="M193.3,-191.61C218.78,-178.87 263.17,-160.13 303.82,-160.13 303.82,-160.13 303.82,-160.13 770.72,-160.13 803.76,-160.13 841.4,-159.19 868.18,-158.37"/>
<polygon fill="black" stroke="black" points="868.26,-161.87 878.15,-158.05 868.04,-154.87 868.26,-161.87"/>
<text xml:space="preserve" text-anchor="middle" x="439.77" y="-163.33" font-family="Times New Roman,serif" font-size="14.00">&#39;u&#39;</text>
</g>
<!-- q47&#45;&gt;q50 -->
<g id="edge43" class="edge">
<title>q47&#45;&gt;q50</title>
<path fill="none" stroke="black" d="M929.41,-153.05C972.85,-146.85 1066.67,-139.43 1131.83,-177.13 1185.1,-207.95 1201.75,-400.65 1206.54,-485.78"/>
<polygon fill="black" stroke="black" points="1203.03,-485.74 1207.06,-495.54 1210.02,-485.37 1203.03,-485.74"/>
<text xml:space="preserve" text-anchor="middle" x="1039.62" y="-156.61" font-family="Times New Roman,serif" font-size="14.00">&#39;l&#39;</text>
</g>
<!-- q48&#45;&gt;q50 -->
<g id="edge64" class="edge">
<title>q48&#45;&gt;q50</title>
<path fill="none" stroke="black" d="M397.31,-116.97C423.93,-115.79 468.15,-114.13 506.25,-114.13 506.25,-114.13 506.25,-114.13 1108.1,-114.13 1184.12,-114.13 1202.71,-382.31 1207.06,-485.94"/>
<polygon fill="black" stroke="black" points="1203.55,-485.79 1207.44,-495.65 1210.54,-485.52 1203.55,-485.79"/>
<text xml:space="preserve" text-anchor="middle" x="837.2" y="-117.33" font-family="Times New Roman,serif" font-size="14.00">&#39;t&#39;</text>
</g>
<!-- q49&#45;&gt;q50 -->
<g id="edge65" class="edge">
<title>q49&#45;&gt;q50</title>
<path fill="none" stroke="black" d="M794.74,-70.26C821.36,-69.38 865.58,-68.13 903.67,-68.13 903.67,-68.13 903.67,-68.13 1108.1,-68.13 1136.18,-68.13 1147.35,-76.54 1162.58,-100.13 1203.36,-163.28 1208.26,-392.23 1208.52,-485.84"/>
<polygon fill="black" stroke="black" points="1205.02,-485.57 1208.52,-495.57 1212.02,-485.56 1205.02,-485.57"/>
<text xml:space="preserve" text-anchor="middle" x="972.15" y="-71.33" font-family="Times New Roman,serif" font-size="14.00">&#39;t&#39;</text>
</g>
</g>
</svg>
